# Blender v2.79 (sub 0) OBJ File: 'evil_tachi_model.blend'
# www.blender.org
mtllib evil_tachi.mtl
o cube
v -0.013591 -0.039188 -2.808334
v 0.013591 -0.039188 -2.808334
v 0.013591 -0.039187 -0.412749
v -0.013591 -0.039187 -0.412749
v -0.013591 0.039187 -2.808334
v -0.013591 0.039187 -0.412749
v 0.013591 0.039187 -2.808334
v 0.013591 0.039187 -0.412749
v -0.045053 -0.069246 -0.421824
v 0.045053 -0.069246 -0.421824
v 0.045053 -0.069246 -0.366162
v -0.045053 -0.069246 -0.366162
v -0.045053 0.069246 -0.421824
v -0.045053 0.069246 -0.366162
v 0.045053 0.069246 -0.421824
v 0.045053 0.069246 -0.366162
v -0.019594 -0.039187 -0.375237
v 0.019594 -0.039187 -0.375237
v 0.019594 -0.039187 1.082555
v -0.019594 -0.039187 1.082555
v -0.019594 0.039187 -0.375237
v -0.019594 0.039187 1.082555
v 0.019594 0.039187 -0.375237
v 0.019594 0.039187 1.082555
vt 0.035156 -0.000000
vt 0.046875 -0.000000
vt 0.046875 1.000000
vt 0.035156 1.000000
vt -0.000000 -0.000000
vt 0.000000 1.000000
vt 0.046875 -0.000000
vt 0.058594 -0.000000
vt 0.058594 1.000000
vt 0.046875 1.000000
vt 0.035156 0.000000
vt 0.000000 0.000000
vt 0.000000 1.000000
vt 0.035156 1.000000
vt 0.256681 0.804641
vt 0.237038 0.804641
vt 0.237038 0.765356
vt 0.256681 0.765356
vt 0.035156 0.019531
vt 0.046875 0.019531
vt 0.019531 0.695312
vt 0.019531 0.632812
vt 0.000000 0.632812
vt 0.000000 0.695312
vt 0.019531 0.632812
vt 0.000000 0.632812
vt 0.019531 0.632812
vt 0.019531 0.695312
vt 0.000000 0.695312
vt 0.000000 0.632812
vt 0.019531 0.695312
vt 0.000000 0.695312
vt 0.015625 0.562500
vt 0.003906 0.562500
vt 0.003906 0.593750
vt 0.015625 0.593750
vt 0.015625 0.761719
vt 0.003906 0.761719
vt 0.003906 0.792969
vt 0.015625 0.792969
vt 0.011719 0.632812
vt 0.003906 0.632812
vt 0.003906 0.894531
vt 0.011719 0.894531
vt 0.000000 0.632812
vt 0.015625 0.632812
vt 0.015625 0.894531
vt 0.000000 0.894531
vt 0.011719 0.632812
vt 0.003906 0.632812
vt 0.003906 0.894531
vt 0.011719 0.894531
vt 0.000000 0.632812
vt 0.015625 0.632812
vt 0.015625 0.894531
vt 0.000000 0.894531
vt 0.011719 0.851562
vt 0.003906 0.851562
vt 0.003906 0.820312
vt 0.011719 0.820312
vt 0.296875 1.343750
vt 0.277344 1.343750
vt 0.277344 1.382812
vt 0.296875 1.382812
vn -0.0000 -1.0000 0.0000
vn -1.0000 0.0000 -0.0000
vn 0.0000 1.0000 -0.0000
vn 1.0000 -0.0000 0.0000
vn 0.0000 0.0000 1.0000
vn -0.0000 0.0000 -1.0000
usemtl None
s 1
f 1/1/1 2/2/1 3/3/1 4/4/1
f 5/5/2 1/1/2 4/4/2 6/6/2
f 7/7/3 5/8/3 6/9/3 8/10/3
f 2/11/4 7/12/4 8/13/4 3/14/4
f 8/15/5 6/16/5 4/17/5 3/18/5
f 2/2/6 1/1/6 5/19/6 7/20/6
f 9/21/1 10/22/1 11/23/1 12/24/1
f 13/25/2 9/21/2 12/24/2 14/26/2
f 15/27/3 13/28/3 14/29/3 16/30/3
f 10/22/4 15/31/4 16/32/4 11/23/4
f 16/33/5 14/34/5 12/35/5 11/36/5
f 10/37/6 9/38/6 13/39/6 15/40/6
f 17/41/1 18/42/1 19/43/1 20/44/1
f 21/45/2 17/46/2 20/47/2 22/48/2
f 23/49/3 21/50/3 22/51/3 24/52/3
f 18/53/4 23/54/4 24/55/4 19/56/4
f 24/57/5 22/58/5 20/59/5 19/60/5
f 18/61/6 17/62/6 21/63/6 23/64/6
