# Blender 4.3.0
# www.blender.org
mtllib gesetz_handle.mtl
o cube.004
v -0.183961 0.133737 0.159476
v -0.183961 0.275071 0.018142
v -0.183961 -0.013032 0.012706
v -0.183961 0.128301 -0.128628
v -0.122461 0.275071 0.018142
v -0.122461 0.133737 0.159476
v -0.122461 0.128301 -0.128628
v -0.122461 -0.013032 0.012706
v -0.176274 0.310744 -0.083968
v -0.176274 0.310744 -0.145468
v -0.176274 -0.042883 -0.083968
v -0.176274 -0.042883 -0.145468
v 0.169666 0.310744 -0.145468
v 0.169666 0.310744 -0.083968
v 0.169666 -0.042883 -0.145468
v 0.169666 -0.042883 -0.083968
v -0.176274 0.310744 0.185097
v -0.176274 0.310744 0.123596
v -0.176274 -0.042883 0.185097
v -0.176274 -0.042883 0.123596
v 0.169666 0.310744 0.123596
v 0.169666 0.310744 0.185097
v 0.169666 -0.042883 0.123596
v 0.169666 -0.042883 0.185097
v 0.108166 0.233869 0.123596
v 0.108166 0.233869 -0.083968
v 0.108166 0.026305 0.123596
v 0.108166 0.026305 -0.083968
v 0.169666 0.233869 -0.083968
v 0.169666 0.233869 0.123596
v 0.169666 0.026305 -0.083968
v 0.169666 0.026305 0.123596
v -0.176274 0.279994 0.123596
v -0.176274 0.279994 -0.083968
v -0.176274 -0.019820 0.123596
v -0.176274 -0.019820 -0.083968
v -0.114773 0.279994 -0.083968
v -0.114773 0.279994 0.123596
v -0.114773 -0.019820 -0.083968
v -0.114773 -0.019820 0.123596
vn -0.0000 0.7071 -0.7071
vn -1.0000 -0.0000 -0.0000
vn -0.0000 -0.7071 0.7071
vn 1.0000 -0.0000 -0.0000
vn -0.0000 0.7071 0.7071
vn -0.0000 -0.7071 -0.7071
vn -0.0000 -0.0000 -1.0000
vn -0.0000 -0.0000 1.0000
vn -0.0000 1.0000 -0.0000
vn -0.0000 -1.0000 -0.0000
vt 0.406250 0.546875
vt 0.437500 0.546875
vt 0.437500 0.625000
vt 0.406250 0.625000
vt 0.187500 0.609375
vt 0.265625 0.609375
vt 0.265625 0.687500
vt 0.187500 0.687500
vt 0.000000 0.484375
vt 0.031250 0.484375
vt 0.031250 0.562500
vt 0.000000 0.562500
vt 0.312500 0.703125
vt 0.390625 0.703125
vt 0.390625 0.781250
vt 0.312500 0.781250
vt 0.062500 0.562500
vt 0.062500 0.484375
vt 0.093750 0.484375
vt 0.093750 0.562500
vt 0.000000 0.859375
vt 0.140625 0.859375
vt 0.140625 1.000000
vt 0.000000 1.000000
vt 0.281250 0.546875
vt 0.312500 0.546875
vt 0.312500 0.687500
vt 0.281250 0.687500
vt 0.000000 0.703125
vt 0.140625 0.703125
vt 0.140625 0.843750
vt 0.000000 0.843750
vt 0.343750 0.546875
vt 0.343750 0.687500
vt 0.484375 0.687500
vt 0.343750 0.656250
vt 0.484375 0.656250
vt 0.484375 0.625000
vt 0.343750 0.625000
vt 0.156250 0.859375
vt 0.296875 0.859375
vt 0.296875 1.000000
vt 0.156250 1.000000
vt 0.343750 0.484375
vt 0.375000 0.484375
vt 0.375000 0.625000
vt 0.156250 0.703125
vt 0.296875 0.703125
vt 0.296875 0.843750
vt 0.156250 0.843750
vt 0.406250 0.484375
vt 0.546875 1.000000
vt 0.406250 1.000000
vt 0.406250 0.968750
vt 0.546875 0.968750
vt 0.546875 0.937500
vt 0.406250 0.937500
vt 0.187500 0.515625
vt 0.218750 0.515625
vt 0.218750 0.593750
vt 0.187500 0.593750
vt 0.093750 0.609375
vt 0.093750 0.687500
vt 0.406250 0.734375
vt 0.437500 0.734375
vt 0.437500 0.812500
vt 0.406250 0.812500
vt 0.312500 0.796875
vt 0.406250 0.796875
vt 0.406250 0.875000
vt 0.312500 0.875000
vt 0.156250 0.593750
vt 0.125000 0.593750
vt 0.125000 0.500000
vt 0.156250 0.500000
vt 0.187500 0.500000
vt 0.437500 0.937500
vt 0.078125 0.562500
vt 0.078125 0.687500
vt 0.000000 0.687500
vt 0.093750 0.468750
vt 0.125000 0.468750
vt 0.093750 0.593750
vt 0.390625 0.875000
vt 0.390625 1.000000
vt 0.312500 1.000000
vt 0.250000 0.593750
vt 0.250000 0.515625
vt 0.281250 0.515625
vt 0.281250 0.593750
s 1
usemtl m_954c7f73-a558-713e-8253-4f92730c5730
f 4/1/1 2/4/1 5/3/1 7/2/1
f 3/5/2 1/8/2 2/7/2 4/6/2
f 8/9/3 6/12/3 1/11/3 3/10/3
f 7/13/4 5/16/4 6/15/4 8/14/4
f 6/17/5 5/18/5 2/10/5 1/11/5
f 7/19/6 8/20/6 3/17/6 4/18/6
f 12/21/7 10/24/7 13/23/7 15/22/7
f 11/25/2 9/28/2 10/27/2 12/26/2
f 16/29/8 14/32/8 9/31/8 11/30/8
f 15/26/4 13/27/4 14/34/4 16/33/4
f 14/35/9 13/37/9 10/36/9 9/34/9
f 15/38/10 16/37/10 11/36/10 12/39/10
f 20/40/7 18/43/7 21/42/7 23/41/7
f 19/44/2 17/39/2 18/46/2 20/45/2
f 24/47/8 22/50/8 17/49/8 19/48/8
f 23/45/4 21/46/4 22/4/4 24/51/4
f 22/52/9 21/55/9 18/54/9 17/53/9
f 23/56/10 24/55/10 19/54/10 20/57/10
f 28/58/7 26/61/7 29/60/7 31/59/7
f 27/62/2 25/63/2 26/8/2 28/5/2
f 32/64/8 30/67/8 25/66/8 27/65/8
f 31/68/4 29/71/4 30/70/4 32/69/4
f 30/72/9 29/75/9 26/74/9 25/73/9
f 31/76/10 32/61/10 27/72/10 28/75/10
f 36/67/7 34/57/7 37/77/7 39/66/7
f 35/12/2 33/80/2 34/79/2 36/78/2
f 40/81/8 38/83/8 33/73/8 35/82/8
f 39/71/4 37/86/4 38/85/4 40/84/4
f 38/87/9 37/88/9 34/59/9 33/60/9
f 39/89/10 40/90/10 35/87/10 36/88/10
