# Blender v2.79 (sub 0) OBJ File: 'herrscher_aura_model.blend'
# www.blender.org
mtllib herrscher_aura_model.mtl
o Cube_Cube.001
v -0.000064 0.026160 -1.853260
v -0.000067 0.052319 -1.780630
v 0.000054 0.052319 -1.780630
v 0.000050 0.026160 -1.853260
v -0.000067 -0.073641 -1.720854
v 0.000054 -0.073641 -1.720854
v 0.000054 -0.107873 -0.564805
v -0.000067 -0.107873 -0.564805
v 0.000054 0.073641 -1.720854
v -0.000067 0.073641 -1.720854
v -0.000067 0.107873 -0.564805
v 0.000054 0.107873 -0.564805
v 0.069767 0.053937 -0.564805
v 0.069884 0.055365 -0.481706
v 0.069884 -0.055365 -0.481706
v 0.069767 -0.053937 -0.564805
v -0.000064 -0.026159 -1.853260
v -0.000035 0.000000 -1.925887
v 0.000022 0.000000 -1.925887
v 0.000050 -0.026159 -1.853260
v 0.001212 0.119177 -0.386556
v -0.001226 0.119177 -0.386556
v -0.001613 0.133431 -0.321221
v 0.001600 0.133431 -0.321221
v -0.070018 -0.059589 -0.384930
v -0.073071 -0.000000 -0.314722
v -0.070018 0.059589 -0.384930
v 0.070005 0.059589 -0.384930
v 0.070005 -0.059589 -0.384930
v -0.001226 -0.119177 -0.386556
v 0.001212 -0.119177 -0.386556
v 0.001600 -0.133431 -0.321221
v -0.001613 -0.133431 -0.321221
v 0.073058 -0.000000 -0.314722
v -0.000067 -0.052319 -1.780630
v 0.000054 -0.052319 -1.780630
v -0.069898 0.055365 -0.481706
v -0.069898 -0.055365 -0.481706
v -0.001030 -0.110727 -0.482518
v 0.001017 -0.110727 -0.482518
v 0.001017 0.110727 -0.482518
v -0.001030 0.110727 -0.482518
v -0.069780 -0.053937 -0.564805
v -0.069780 0.053937 -0.564805
v -0.040388 0.019352 -1.742139
v -0.040388 -0.019351 -1.742139
v -0.070257 -0.066715 -0.317972
v 0.070243 0.066715 -0.317972
v -0.070257 0.066715 -0.317972
v 0.070243 -0.066715 -0.317972
v 0.034326 0.000000 -1.793483
v 0.040374 0.019352 -1.742139
v 0.040374 -0.019351 -1.742139
v -0.034339 0.000000 -1.793483
v -0.069898 0.000000 -0.481706
v -0.070018 -0.000000 -0.384930
v -0.040388 0.000000 -1.742139
v -0.069780 0.000000 -0.564805
v 0.040374 0.000000 -1.742139
v 0.070005 -0.000000 -0.384930
v 0.069767 0.000000 -0.564805
v 0.069884 0.000000 -0.481706
v -0.000064 0.026173 -1.853222
v 0.017365 0.000000 -1.858946
v -0.000064 -0.026170 -1.853229
v -0.016679 0.000000 -1.861646
v 0.023231 0.022246 -1.789382
v -0.023055 -0.022277 -1.789901
v -0.022812 0.022319 -1.790572
v 0.023216 -0.022248 -1.789421
vt 0.992437 0.403341
vt 0.992437 0.403341
vt 0.992434 0.403357
vt 0.981632 0.458668
vt 0.784311 0.895913
vt 0.784311 0.895913
vt 0.981632 0.458668
vt 0.981574 0.459087
vt 0.784355 0.896001
vt 0.784355 0.896001
vt 0.981574 0.459087
vt 0.751478 0.879942
vt 0.767895 0.887928
vt 0.753252 0.919135
vt 0.736401 0.910938
vt 0.992497 0.402881
vt 0.992497 0.402881
vt 0.998425 0.372265
vt 0.998425 0.372265
vt 0.755470 0.964109
vt 0.747958 0.990569
vt 0.747958 0.990569
vt 0.755470 0.964109
vt 0.736979 0.955857
vt 0.718842 0.947035
vt 0.706104 0.973222
vt 0.736478 0.911011
vt 0.718929 0.947080
vt 0.737052 0.955897
vt 0.753317 0.919203
vt 0.755411 0.964073
vt 0.747896 0.990553
vt 0.747896 0.990553
vt 0.755411 0.964073
vt 0.706198 0.973247
vt 0.986510 0.433935
vt 0.986510 0.433935
vt 0.986569 0.433497
vt 0.986569 0.433497
vt 0.998363 0.372748
vt 0.998363 0.372748
vt 0.992495 0.402894
vt 0.736401 0.910938
vt 0.753252 0.919135
vt 0.770250 0.927028
vt 0.770250 0.927028
vt 0.770302 0.927092
vt 0.770302 0.927092
vt 0.751547 0.880038
vt 0.767952 0.888020
vt 0.753317 0.919203
vt 0.736478 0.911011
vt 0.965043 0.441233
vt 0.970401 0.443840
vt 0.974402 0.421651
vt 0.970450 0.443410
vt 0.965087 0.440802
vt 0.965043 0.441233
vt 0.751547 0.880038
vt 0.767952 0.888020
vt 0.970401 0.443840
vt 0.970450 0.443410
vt 0.974402 0.421651
vt 0.965087 0.440802
vt 0.736979 0.955857
vt 0.727000 0.981887
vt 0.706104 0.973222
vt 0.727077 0.981908
vt 0.737052 0.955897
vt 0.727077 0.981908
vt 0.706198 0.973247
vt 0.727000 0.981887
vt 0.767895 0.887928
vt 0.751478 0.879942
vt 0.718929 0.947080
vt 0.974353 0.422096
vt 0.718842 0.947035
vt 0.974353 0.422096
vt 0.980005 0.426188
vt 0.979926 0.425990
vt 0.979831 0.426165
vt 0.986280 0.397234
vt 0.979769 0.426622
vt 0.986224 0.397698
vt 0.986714 0.396691
vt 0.986770 0.396226
vn 0.0000 -0.9405 0.3399
vn 0.0000 0.9996 0.0296
vn 0.0000 -0.9996 0.0296
vn -1.0000 0.0000 0.0014
vn 0.0000 0.9408 0.3389
vn 0.0000 -0.9770 0.2132
vn 0.9991 0.0000 0.0434
vn -1.0000 0.0000 0.0012
vn 0.0000 0.9770 0.2132
vn -0.9991 0.0000 0.0434
vn 0.0000 -0.9419 0.3360
vn 0.0000 0.9419 0.3360
vn 0.0000 -0.9408 0.3389
vn 0.0001 0.9408 0.3389
vn 1.0000 0.0000 0.0012
vn 0.0000 0.9961 0.0877
vn 0.0000 -0.9961 0.0877
vn 0.0000 -0.9994 0.0347
vn 1.0000 0.0000 0.0014
vn 0.9997 0.0000 0.0250
vn 0.0000 0.9994 0.0347
vn -0.9931 0.0000 0.1170
vn -0.9997 0.0000 0.0250
vn 0.9931 0.0000 0.1170
vn -0.9991 0.0418 0.0080
vn -0.9991 -0.0418 0.0080
vn 0.9991 -0.0418 0.0080
vn 0.9991 0.0418 0.0080
vn 0.0000 0.9408 0.3388
vn -0.0004 -0.9408 0.3389
vn 0.5958 -0.7824 0.1811
vn 0.9224 -0.2269 0.3126
vn 0.9766 -0.2023 0.0726
vn 0.9612 -0.2741 0.0308
vn -0.5958 -0.7824 0.1811
vn -0.4391 -0.8980 0.0271
vn -0.9470 -0.3208 0.0155
vn -0.9612 -0.2741 0.0308
vn 0.5958 0.7824 0.1811
vn 0.5285 0.8333 0.1619
vn 0.9527 0.0003 0.3040
vn -0.4342 -0.8961 0.0917
vn -0.6013 -0.7285 0.3283
vn -0.8472 -0.3479 0.4015
vn -0.9494 -0.3126 0.0308
vn 0.4342 0.8961 0.0917
vn 0.6013 0.7285 0.3283
vn 0.8472 0.3479 0.4015
vn 0.9494 0.3126 0.0308
vn -0.9971 0.0667 0.0368
vn -0.5312 0.8329 0.1551
vn -0.9527 -0.0000 0.3040
vn -0.9103 -0.3209 0.2615
vn -0.9971 -0.0667 0.0366
vn -0.9264 -0.2254 0.3017
vn -0.9766 -0.2023 0.0726
vn 0.4391 -0.8980 0.0271
vn 0.9470 -0.3208 0.0156
vn -0.8946 -0.0001 -0.4468
vn 0.9494 -0.3126 0.0308
vn 0.8472 -0.3479 0.4015
vn 0.6013 -0.7285 0.3283
vn 0.4342 -0.8961 0.0917
vn -0.9766 0.2023 0.0726
vn -0.9612 0.2741 0.0308
vn -0.5958 0.7824 0.1811
vn 0.9470 0.3208 0.0155
vn 0.9612 0.2741 0.0308
vn 0.4391 0.8980 0.0271
vn -0.9494 0.3126 0.0308
vn -0.8472 0.3479 0.4015
vn -0.6013 0.7285 0.3283
vn -0.4342 0.8961 0.0917
vn 0.9766 0.2023 0.0726
vn -0.9470 0.3208 0.0156
vn -0.4391 0.8980 0.0271
vn -0.9282 0.3715 0.0191
vn -0.3874 0.9211 0.0386
vn 0.9282 -0.3715 0.0191
vn 0.3874 -0.9211 0.0386
vn 0.3874 0.9211 0.0386
vn 0.9282 0.3715 0.0191
vn -0.3874 -0.9211 0.0386
vn -0.9282 -0.3715 0.0191
vn 0.9971 -0.0661 0.0366
vn 0.9982 -0.0001 -0.0603
vn 0.8946 -0.0001 -0.4468
vn 0.9971 0.0659 0.0370
vn 0.9854 -0.1622 0.0516
vn 0.9768 0.2015 0.0726
usemtl None
s off
f 1/1/1 4/2/1 63/3/1
f 5/4/2 8/5/2 7/6/2 6/7/2
f 9/8/3 12/9/3 11/10/3 10/11/3
f 61/12/4 16/13/4 15/14/4 62/15/4
f 17/16/5 20/17/5 19/18/5 18/19/5
f 21/20/6 24/21/6 23/22/6 22/23/6
f 25/24/7 56/25/7 26/26/7
f 62/27/8 60/28/8 28/29/8 14/30/8
f 30/31/9 33/32/9 32/33/9 31/34/9
f 28/29/10 60/28/10 34/35/10
f 3/36/11 9/8/11 10/11/11 2/37/11
f 35/38/12 5/4/12 6/7/12 36/39/12
f 18/40/13 19/41/13 4/2/13 1/1/13
f 35/38/14 36/39/14 20/17/14 65/42/14
f 55/43/15 56/25/15 25/24/15 38/44/15
f 39/45/16 30/31/16 31/34/16 40/46/16
f 41/47/17 21/20/17 22/23/17 42/48/17
f 12/9/18 41/47/18 42/48/18 11/10/18
f 58/49/19 44/50/19 37/51/19 55/52/19
f 58/49/20 57/53/20 45/54/20 44/50/20
f 8/5/21 39/45/21 40/46/21 7/6/21
f 51/55/22 53/56/22 59/57/22
f 59/58/23 61/59/23 13/60/23 52/61/23
f 46/62/24 54/63/24 57/64/24
f 29/65/25 50/66/25 34/67/25
f 34/35/26 48/68/26 28/29/26
f 27/69/27 49/70/27 26/71/27
f 26/26/28 47/72/28 25/24/28
f 43/73/20 46/62/20 57/64/20 58/74/20
f 43/73/19 58/74/19 55/43/19 38/44/19
f 37/51/15 27/69/15 56/75/15 55/52/15
f 53/56/23 16/13/23 61/12/23 59/57/23
f 57/53/24 54/76/24 45/54/24
f 15/14/8 29/65/8 60/77/8 62/15/8
f 13/60/4 61/59/4 62/27/4 14/30/4
f 59/58/22 52/61/22 51/78/22
f 34/67/10 60/77/10 29/65/10
f 26/71/7 56/75/7 27/69/7
f 65/42/29 20/17/29 17/16/29
f 63/3/30 4/2/30 3/36/30 2/37/30
s 1
f 45/54/31 69/79/32 2/37/33 10/11/34
f 52/61/35 13/60/36 12/9/37 9/8/38
f 46/62/39 68/80/40 54/63/41
f 28/29/42 48/68/43 24/21/44 21/20/45
f 25/24/46 47/72/47 33/32/48 30/31/49
f 20/17/50 70/81/51 51/55/52 64/82/53
f 4/2/54 67/83/55 3/36/56
f 44/50/57 45/54/31 10/11/34 11/10/58
f 19/41/59 64/84/53 4/2/54
f 22/23/60 23/22/61 49/70/62 27/69/63
f 54/76/41 69/79/32 45/54/31
f 36/39/64 6/7/65 53/56/66 70/81/51
f 8/5/67 5/4/68 46/62/39 43/73/69
f 31/34/70 32/33/71 50/66/72 29/65/73
f 5/4/68 35/38/74 68/80/40 46/62/39
f 6/7/65 7/6/75 16/13/76 53/56/66
f 40/46/77 31/34/70 29/65/73 15/14/78
f 42/48/79 22/23/60 27/69/63 37/51/80
f 38/44/81 25/24/46 30/31/49 39/45/82
f 14/30/83 28/29/42 21/20/45 41/47/84
f 13/60/36 14/30/83 41/47/84 12/9/37
f 43/73/69 38/44/81 39/45/82 8/5/67
f 11/10/58 42/48/79 37/51/80 44/50/57
f 7/6/75 40/46/77 15/14/78 16/13/76
f 4/2/54 64/84/53 51/78/52 67/83/55
f 64/82/53 19/18/59 20/17/50
f 1/1/85 66/85/86 18/40/87
f 66/86/86 17/16/88 18/19/87
f 69/79/32 54/76/41 66/85/86 1/1/85
f 2/37/33 69/79/32 1/1/85 63/3/89
f 68/80/40 35/38/74 65/42/90 17/16/88
f 70/81/51 20/17/50 36/39/64
f 67/83/55 51/78/52 52/61/35
f 51/55/52 70/81/51 53/56/66
f 54/63/41 68/80/40 17/16/88 66/86/86
f 3/36/56 67/83/55 52/61/35 9/8/38
