# Blender v2.79 (sub 0) OBJ File: 'hollow_longsword_model.blend'
# www.blender.org
mtllib hollow_longsword.mtl
o cube.001
v 0.019999 -0.046440 0.388003
v -0.019999 -0.046440 0.388003
v -0.019999 -0.046293 -0.111969
v 0.019999 -0.046293 -0.111969
v 0.019999 0.053554 0.388033
v 0.019999 0.053701 -0.111940
v -0.019999 0.053554 0.388033
v -0.019999 0.053701 -0.111940
v 0.037498 -0.238272 -0.130953
v -0.037498 -0.238272 -0.130953
v -0.037498 -0.231731 -0.180520
v 0.037498 -0.231731 -0.180520
v 0.037498 0.009567 -0.098250
v 0.037498 0.016107 -0.147817
v -0.037498 0.009567 -0.098250
v -0.037498 0.016107 -0.147817
v 0.024999 -0.067154 0.400497
v -0.024999 -0.067154 0.400497
v -0.024999 0.003574 0.329811
v 0.024999 0.003574 0.329811
v 0.024999 0.003532 0.471224
v 0.024999 0.074260 0.400538
v -0.024999 0.003532 0.471224
v -0.024999 0.074260 0.400538
v 0.012499 -0.058781 -0.149471
v -0.012499 -0.058781 -0.149471
v -0.012499 -0.058281 -1.849378
v 0.012499 -0.058281 -1.849378
v 0.012499 0.066212 -0.149434
v 0.012499 0.066712 -1.849342
v -0.012499 0.066212 -0.149434
v -0.012499 0.066712 -1.849342
v 0.024999 -0.071255 -0.236970
v -0.024999 -0.071255 -0.236970
v -0.024999 0.078737 -0.236926
v 0.024999 0.078737 -0.236926
v 0.024999 -0.071284 -0.136975
v 0.024999 0.078707 -0.136931
v -0.024999 -0.071284 -0.136975
v -0.024999 0.078707 -0.136931
v 0.037498 -0.002166 -0.098253
v -0.037498 -0.002166 -0.098253
v -0.037498 -0.008678 -0.147825
v 0.037498 -0.008678 -0.147825
v 0.037498 0.245691 -0.130810
v 0.037498 0.239180 -0.180382
v -0.037498 0.245691 -0.130810
v -0.037498 0.239180 -0.180382
vt 0.125000 0.687500
vt 0.140625 0.687500
vt 0.140625 0.843750
vt 0.125000 0.843750
vt 0.125000 0.843750
vt 0.156250 0.843750
vt 0.156250 1.000000
vt 0.125000 1.000000
vt 0.140625 0.687500
vt 0.156250 0.687500
vt 0.156250 0.843750
vt 0.140625 0.843750
vt 0.156250 0.843750
vt 0.187500 0.843750
vt 0.187500 1.000000
vt 0.156250 1.000000
vt 0.250000 0.750000
vt 0.234375 0.750000
vt 0.234375 0.718750
vt 0.250000 0.718750
vt 0.265625 0.734375
vt 0.250000 0.734375
vt 0.250000 0.765625
vt 0.265625 0.765625
vt 0.265625 0.890625
vt 0.296875 0.890625
vt 0.296875 0.906250
vt 0.265625 0.906250
vt 0.250000 0.984375
vt 0.328125 0.984375
vt 0.328125 1.000000
vt 0.250000 1.000000
vt 0.265625 0.875000
vt 0.296875 0.875000
vt 0.296875 0.890625
vt 0.265625 0.890625
vt 0.250000 0.968750
vt 0.328125 0.968750
vt 0.328125 0.984375
vt 0.250000 0.984375
vt 0.187500 0.843750
vt 0.156250 0.843750
vt 0.156250 0.765625
vt 0.187500 0.765625
vt 0.218750 0.921875
vt 0.187500 0.921875
vt 0.187500 1.000000
vt 0.218750 1.000000
vt 0.265625 0.843750
vt 0.281250 0.843750
vt 0.281250 0.875000
vt 0.265625 0.875000
vt 0.156250 0.734375
vt 0.187500 0.734375
vt 0.187500 0.765625
vt 0.156250 0.765625
vt 0.156250 0.703125
vt 0.171875 0.703125
vt 0.171875 0.734375
vt 0.156250 0.734375
vt 0.187500 0.734375
vt 0.218750 0.734375
vt 0.218750 0.765625
vt 0.187500 0.765625
vt 0.281250 0.843750
vt 0.265625 0.843750
vt 0.265625 0.812500
vt 0.281250 0.812500
vt 0.187500 0.703125
vt 0.171875 0.703125
vt 0.171875 0.734375
vt 0.187500 0.734375
vt 0.093750 0.468750
vt 0.109375 0.468750
vt 0.109375 1.000000
vt 0.093750 1.000000
vt 0.000000 0.468750
vt 0.046875 0.468750
vt 0.046875 1.000000
vt 0.000000 1.000000
vt 0.109375 0.468750
vt 0.125000 0.468750
vt 0.125000 1.000000
vt 0.109375 1.000000
vt 0.046875 0.468750
vt 0.093750 0.468750
vt 0.093750 1.000000
vt 0.046875 1.000000
vt 0.265625 0.906250
vt 0.250000 0.906250
vt 0.250000 0.859375
vt 0.265625 0.859375
vt 0.265625 0.812500
vt 0.250000 0.812500
vt 0.250000 0.859375
vt 0.265625 0.859375
vt 0.250000 0.765625
vt 0.265625 0.765625
vt 0.265625 0.812500
vt 0.250000 0.812500
vt 0.218750 0.796875
vt 0.250000 0.796875
vt 0.250000 0.843750
vt 0.218750 0.843750
vt 0.218750 0.703125
vt 0.234375 0.703125
vt 0.234375 0.750000
vt 0.218750 0.750000
vt 0.218750 0.750000
vt 0.250000 0.750000
vt 0.250000 0.796875
vt 0.218750 0.796875
vt 0.281250 0.796875
vt 0.265625 0.796875
vt 0.265625 0.765625
vt 0.281250 0.765625
vt 0.281250 0.734375
vt 0.265625 0.734375
vt 0.265625 0.765625
vt 0.281250 0.765625
vt 0.187500 0.718750
vt 0.218750 0.718750
vt 0.218750 0.734375
vt 0.187500 0.734375
vt 0.250000 0.953125
vt 0.328125 0.953125
vt 0.328125 0.968750
vt 0.250000 0.968750
vt 0.265625 0.796875
vt 0.296875 0.796875
vt 0.296875 0.812500
vt 0.265625 0.812500
vt 0.250000 0.937500
vt 0.328125 0.937500
vt 0.328125 0.953125
vt 0.250000 0.953125
vt 0.218750 0.921875
vt 0.187500 0.921875
vt 0.187500 0.843750
vt 0.218750 0.843750
vt 0.218750 0.765625
vt 0.187500 0.765625
vt 0.187500 0.843750
vt 0.218750 0.843750
vn 0.0000 -1.0000 -0.0003
vn 1.0000 0.0000 0.0000
vn 0.0000 1.0000 0.0003
vn -1.0000 0.0000 0.0000
vn 0.0000 0.0003 -1.0000
vn 0.0000 -0.0003 1.0000
vn 0.0000 -0.9914 -0.1308
vn 0.0000 0.9914 0.1308
vn 0.0000 0.1308 -0.9914
vn 0.0000 -0.1308 0.9914
vn 0.0000 -0.7069 -0.7073
vn 0.0000 0.7069 0.7073
vn 0.0000 0.7073 -0.7069
vn 0.0000 -0.7073 0.7069
vn 0.0000 -0.9915 0.1302
vn 0.0000 0.9915 -0.1302
vn 0.0000 -0.1302 -0.9915
vn 0.0000 0.1302 0.9915
usemtl Material
s 1
f 1/1/1 2/2/1 3/3/1 4/4/1
f 5/5/2 1/6/2 4/7/2 6/8/2
f 7/9/3 5/10/3 6/11/3 8/12/3
f 2/13/4 7/14/4 8/15/4 3/16/4
f 8/17/5 6/18/5 4/19/5 3/20/5
f 2/21/6 1/22/6 5/23/6 7/24/6
f 9/25/7 10/26/7 11/27/7 12/28/7
f 13/29/2 9/30/2 12/31/2 14/32/2
f 15/33/8 13/34/8 14/35/8 16/36/8
f 10/37/4 15/38/4 16/39/4 11/40/4
f 16/41/9 14/42/9 12/43/9 11/44/9
f 10/45/10 9/46/10 13/47/10 15/48/10
f 17/49/11 18/50/11 19/51/11 20/52/11
f 21/53/2 17/54/2 20/55/2 22/56/2
f 23/57/12 21/58/12 22/59/12 24/60/12
f 18/61/4 23/62/4 24/63/4 19/64/4
f 24/65/13 22/66/13 20/67/13 19/68/13
f 18/69/14 17/70/14 21/71/14 23/72/14
f 25/73/1 26/74/1 27/75/1 28/76/1
f 29/77/2 25/78/2 28/79/2 30/80/2
f 31/81/3 29/82/3 30/83/3 32/84/3
f 26/85/4 31/86/4 32/87/4 27/88/4
f 32/89/5 30/90/5 28/91/5 27/92/5
f 26/93/6 25/94/6 29/95/6 31/96/6
f 33/97/5 34/98/5 35/99/5 36/100/5
f 37/101/2 33/102/2 36/103/2 38/104/2
f 39/105/6 37/106/6 38/107/6 40/108/6
f 34/109/4 39/110/4 40/111/4 35/112/4
f 40/113/3 38/114/3 36/115/3 35/116/3
f 34/117/1 33/118/1 37/119/1 39/120/1
f 41/121/15 42/122/15 43/123/15 44/124/15
f 45/125/2 41/126/2 44/127/2 46/128/2
f 47/129/16 45/130/16 46/131/16 48/132/16
f 42/133/4 47/134/4 48/135/4 43/136/4
f 48/137/17 46/138/17 44/139/17 43/140/17
f 42/141/18 41/142/18 45/143/18 47/144/18
