# Blender 4.3.0
# www.blender.org
mtllib moonless_handle.mtl
o cube
v 0.086970 -0.005383 -0.192516
v 0.086970 -0.005383 0.156234
v 0.086970 0.118367 -0.192516
v 0.086970 0.118367 0.156234
v -0.024280 -0.005383 0.156234
v -0.024280 -0.005383 -0.192516
v -0.024280 0.118367 0.156234
v -0.024280 0.118367 -0.192516
v 0.062595 -0.006008 -0.211891
v 0.062595 -0.006008 -0.193141
v 0.062595 0.250242 -0.211891
v 0.062595 0.250242 -0.193141
v 0.000095 -0.006008 -0.193141
v 0.000095 -0.006008 -0.211891
v 0.000095 0.250242 -0.193141
v 0.000095 0.250242 -0.211891
v 0.062595 0.231492 -0.193141
v 0.062595 0.231492 0.156859
v 0.062595 0.250242 -0.193141
v 0.062595 0.250242 0.156859
v 0.000095 0.231492 0.156859
v 0.000095 0.231492 -0.193141
v 0.000095 0.250242 0.156859
v 0.000095 0.250242 -0.193141
v 0.093845 -0.012258 0.100609
v 0.093845 -0.012258 0.131859
v 0.093845 0.106492 0.100609
v 0.093845 0.106492 0.131859
v -0.031155 -0.012258 0.131859
v -0.031155 -0.012258 0.100609
v -0.031155 0.106492 0.131859
v -0.031155 0.106492 0.100609
v 0.093845 -0.012258 0.038109
v 0.093845 -0.012258 0.069359
v 0.093845 0.106492 0.038109
v 0.093845 0.106492 0.069359
v -0.031155 -0.012258 0.069359
v -0.031155 -0.012258 0.038109
v -0.031155 0.106492 0.069359
v -0.031155 0.106492 0.038109
v 0.093845 -0.012258 -0.218141
v 0.093845 -0.012258 -0.186891
v 0.093845 0.125242 -0.218141
v 0.093845 0.125242 -0.186891
v -0.031155 -0.012258 -0.186891
v -0.031155 -0.012258 -0.218141
v -0.031155 0.125242 -0.186891
v -0.031155 0.125242 -0.218141
v 0.087595 -0.337258 0.144359
v 0.087595 -0.337258 0.275609
v 0.087595 0.268992 0.144359
v 0.087595 0.268992 0.275609
v -0.024905 -0.337258 0.275609
v -0.024905 -0.337258 0.144359
v -0.024905 0.268992 0.275609
v -0.024905 0.268992 0.144359
v 0.087908 -0.624417 0.207701
v 0.087908 -0.595874 0.336450
v 0.087908 -0.337020 0.143986
v 0.087908 -0.308477 0.272735
v -0.025218 -0.595874 0.336450
v -0.025218 -0.624417 0.207701
v -0.025218 -0.308477 0.272735
v -0.025218 -0.337020 0.143986
v -0.024905 0.100242 0.144359
v -0.024905 0.100242 0.277172
v -0.024905 0.268992 0.144359
v -0.024905 0.268992 0.277171
v -0.131155 0.100242 0.277172
v -0.131155 0.100242 0.144359
v -0.131155 0.268992 0.277171
v -0.131155 0.268992 0.144359
v -0.055843 0.185023 0.191198
v -0.055843 -0.054068 0.430289
v -0.055843 0.269434 0.275609
v -0.055843 0.030343 0.514700
v -0.131468 -0.054068 0.430289
v -0.131468 0.185023 0.191198
v -0.131468 0.030343 0.514700
v -0.131468 0.269434 0.275609
v -0.056155 -0.138760 0.161838
v -0.056155 -0.331596 0.391652
v -0.056155 -0.047792 0.238169
v -0.056155 -0.240628 0.467983
v -0.131155 -0.331596 0.391652
v -0.131155 -0.138760 0.161838
v -0.131155 -0.240628 0.467983
v -0.131155 -0.047792 0.238169
v -0.024593 -0.139133 0.161601
v -0.024593 -0.110590 0.290350
v -0.024593 -0.065300 0.145233
v -0.024593 -0.036757 0.273982
v -0.131468 -0.110590 0.290350
v -0.131468 -0.139133 0.161601
v -0.131468 -0.036757 0.273982
v -0.131468 -0.065300 0.145233
v -0.056468 -0.275594 0.395820
v -0.056468 -0.275594 0.513945
v -0.056468 0.030031 0.395820
v -0.056468 0.030031 0.513945
v -0.130843 -0.275594 0.513945
v -0.130843 -0.275594 0.395820
v -0.130843 0.030031 0.513945
v -0.130843 0.030031 0.395820
v -0.049280 -0.419205 0.477081
v -0.049280 -0.419205 0.597081
v -0.049280 -0.127330 0.477081
v -0.049280 -0.127330 0.597081
v -0.138030 -0.419205 0.597081
v -0.138030 -0.419205 0.477081
v -0.138030 -0.127330 0.597081
v -0.138030 -0.127330 0.477081
v -0.049905 -0.418004 0.597848
v -0.049905 -0.334035 0.681817
v -0.049905 -0.212501 0.392345
v -0.049905 -0.128532 0.476314
v -0.137405 -0.334035 0.681817
v -0.137405 -0.418004 0.597848
v -0.137405 -0.128532 0.476314
v -0.137405 -0.212501 0.392345
v -0.049592 -0.332955 0.391456
v -0.049592 -0.332955 0.682706
v -0.049592 -0.213580 0.391456
v -0.049592 -0.213580 0.682706
v -0.137717 -0.332955 0.682706
v -0.137717 -0.332955 0.391456
v -0.137717 -0.213580 0.682706
v -0.137717 -0.213580 0.391456
v -0.049905 -0.334035 0.392345
v -0.049905 -0.418004 0.476314
v -0.049905 -0.128532 0.597848
v -0.049905 -0.212501 0.681817
v -0.137405 -0.418004 0.476314
v -0.137405 -0.334035 0.392345
v -0.137405 -0.212501 0.681817
v -0.137405 -0.128532 0.597848
vn -0.0000 -0.0000 1.0000
vn 1.0000 -0.0000 -0.0000
vn -0.0000 -0.0000 -1.0000
vn -1.0000 -0.0000 -0.0000
vn -0.0000 -1.0000 -0.0000
vn -0.0000 1.0000 -0.0000
vn -0.0000 0.2164 0.9763
vn -0.0000 -0.2164 -0.9763
vn -0.0000 -0.9763 0.2164
vn -0.0000 0.9763 -0.2164
vn -0.0000 -0.7071 0.7071
vn -0.0000 0.7071 -0.7071
vn -0.0000 -0.7071 -0.7071
vn -0.0000 0.7071 0.7071
vn -0.0000 -0.6428 0.7660
vn -0.0000 0.6428 -0.7660
vn -0.0000 -0.7660 -0.6428
vn -0.0000 0.7660 0.6428
vt 0.625000 0.593750
vt 0.687500 0.593750
vt 0.687500 0.656250
vt 0.625000 0.656250
vt 0.250000 0.937500
vt 0.421875 0.937500
vt 0.421875 1.000000
vt 0.250000 1.000000
vt 0.625000 0.531250
vt 0.687500 0.531250
vt 0.250000 0.875000
vt 0.421875 0.875000
vt 0.312500 0.875000
vt 0.250000 0.703125
vt 0.312500 0.703125
vt 0.062500 0.515625
vt 0.000000 0.515625
vt 0.000000 0.687500
vt 0.062500 0.687500
vt 0.625000 0.406250
vt 0.656250 0.406250
vt 0.656250 0.531250
vt 0.312500 0.156250
vt 0.328125 0.156250
vt 0.328125 0.281250
vt 0.312500 0.281250
vt 0.562500 0.250000
vt 0.593750 0.250000
vt 0.593750 0.375000
vt 0.562500 0.375000
vt 0.343750 0.156250
vt 0.359375 0.156250
vt 0.359375 0.281250
vt 0.343750 0.281250
vt 0.687500 0.687500
vt 0.656250 0.687500
vt 0.656250 0.671875
vt 0.687500 0.671875
vt 0.687500 0.421875
vt 0.656250 0.421875
vt 0.656250 0.437500
vt 0.687500 0.437500
vt 0.750000 0.421875
vt 0.781250 0.421875
vt 0.781250 0.437500
vt 0.750000 0.437500
vt 0.687500 0.546875
vt 0.859375 0.546875
vt 0.859375 0.562500
vt 0.687500 0.562500
vt 0.750000 0.390625
vt 0.781250 0.390625
vt 0.781250 0.406250
vt 0.750000 0.406250
vt 0.687500 0.359375
vt 0.859375 0.359375
vt 0.859375 0.375000
vt 0.687500 0.375000
vt 0.593750 0.750000
vt 0.562500 0.750000
vt 0.562500 0.578125
vt 0.593750 0.578125
vt 0.593750 0.390625
vt 0.562500 0.390625
vt 0.562500 0.562500
vt 0.593750 0.562500
vt 0.625000 0.343750
vt 0.687500 0.343750
vt 0.687500 0.406250
vt 0.718750 0.250000
vt 0.734375 0.250000
vt 0.734375 0.312500
vt 0.718750 0.312500
vt 0.000000 0.281250
vt 0.062500 0.281250
vt 0.062500 0.343750
vt 0.000000 0.343750
vt 0.062500 0.187500
vt 0.078125 0.187500
vt 0.078125 0.250000
vt 0.062500 0.250000
vt 0.156250 0.250000
vt 0.093750 0.250000
vt 0.093750 0.234375
vt 0.156250 0.234375
vt 0.218750 0.234375
vt 0.218750 0.250000
vt 0.656250 0.937500
vt 0.718750 0.937500
vt 0.718750 1.000000
vt 0.656250 1.000000
vt 0.218750 0.187500
vt 0.234375 0.187500
vt 0.234375 0.250000
vt 0.656250 0.875000
vt 0.718750 0.875000
vt 0.750000 0.687500
vt 0.765625 0.687500
vt 0.765625 0.750000
vt 0.750000 0.750000
vt 0.812500 0.687500
vt 0.750000 0.671875
vt 0.812500 0.671875
vt 0.812500 0.640625
vt 0.750000 0.640625
vt 0.750000 0.656250
vt 0.812500 0.656250
vt 0.656250 0.812500
vt 0.718750 0.812500
vt 0.750000 0.562500
vt 0.765625 0.562500
vt 0.765625 0.625000
vt 0.750000 0.625000
vt 0.656250 0.750000
vt 0.718750 0.750000
vt 0.750000 0.468750
vt 0.765625 0.468750
vt 0.765625 0.531250
vt 0.750000 0.531250
vt 0.500000 0.250000
vt 0.500000 0.234375
vt 0.562500 0.234375
vt 0.625000 0.234375
vt 0.625000 0.250000
vt 0.000000 0.703125
vt 0.062500 0.703125
vt 0.062500 1.000000
vt 0.000000 1.000000
vt 0.125000 0.703125
vt 0.125000 1.000000
vt 0.187500 0.703125
vt 0.187500 1.000000
vt 0.718750 0.687500
vt 0.375000 0.281250
vt 0.312500 0.343750
vt 0.375000 0.343750
vt 0.312500 0.515625
vt 0.375000 0.515625
vt 0.375000 0.656250
vt 0.312500 0.656250
vt 0.062500 0.484375
vt 0.125000 0.484375
vt 0.125000 0.625000
vt 0.062500 0.625000
vt 0.187500 0.484375
vt 0.187500 0.625000
vt 0.250000 0.484375
vt 0.250000 0.625000
vt 0.437500 0.343750
vt 0.437500 0.281250
vt 0.500000 0.281250
vt 0.500000 0.343750
vt 0.656250 0.453125
vt 0.703125 0.453125
vt 0.703125 0.531250
vt 0.593750 0.921875
vt 0.656250 0.921875
vt 0.593750 1.000000
vt 0.593750 0.265625
vt 0.640625 0.265625
vt 0.640625 0.343750
vt 0.593750 0.343750
vt 0.593750 0.671875
vt 0.703125 0.343750
vt 0.656250 0.343750
vt 0.656250 0.281250
vt 0.703125 0.281250
vt 0.109375 0.250000
vt 0.062500 0.312500
vt 0.109375 0.312500
vt 0.234375 0.625000
vt 0.234375 0.687500
vt 0.375000 0.218750
vt 0.406250 0.218750
vt 0.406250 0.281250
vt 0.312500 0.812500
vt 0.484375 0.812500
vt 0.484375 0.875000
vt 0.531250 0.437500
vt 0.500000 0.437500
vt 0.500000 0.265625
vt 0.531250 0.265625
vt 0.562500 0.265625
vt 0.562500 0.437500
vt 0.468750 0.218750
vt 0.500000 0.218750
vt 0.468750 0.281250
vt 0.500000 0.812500
vt 0.640625 0.812500
vt 0.640625 0.875000
vt 0.500000 0.875000
vt 0.718750 0.468750
vt 0.718750 0.531250
vt 0.500000 0.750000
vt 0.640625 0.750000
vt 0.281250 0.375000
vt 0.250000 0.375000
vt 0.250000 0.234375
vt 0.281250 0.234375
vt 0.312500 0.234375
vt 0.312500 0.375000
vt 0.656250 0.250000
vt 0.703125 0.250000
vt 0.593750 0.875000
vt 0.656250 0.906250
vt 0.593750 0.906250
vt 0.765625 0.312500
vt 0.765625 0.343750
vt 0.718750 0.343750
vt 0.718750 0.437500
vt 0.781250 0.468750
vt 0.765625 0.875000
vt 0.765625 0.812500
vt 0.593750 0.500000
vt 0.625000 0.500000
vt 0.593750 0.656250
vt 0.375000 0.812500
vt 0.250000 0.531250
vt 0.312500 0.531250
vt 0.312500 0.687500
vt 0.250000 0.687500
vt 0.437500 0.218750
vt 0.500000 0.609375
vt 0.546875 0.609375
vt 0.546875 0.750000
vt 0.375000 0.671875
vt 0.437500 0.671875
vt 0.437500 0.812500
vt 0.312500 0.359375
vt 0.359375 0.359375
vt 0.359375 0.500000
vt 0.312500 0.500000
vt 0.437500 0.515625
vt 0.437500 0.656250
vt 0.171875 0.312500
vt 0.125000 0.312500
vt 0.125000 0.250000
vt 0.171875 0.250000
vt 0.187500 0.250000
vt 0.187500 0.312500
vt 0.234375 0.312500
vt 0.437500 0.359375
vt 0.484375 0.359375
vt 0.484375 0.500000
vt 0.437500 0.500000
vt 0.500000 0.671875
vt 0.062500 0.328125
vt 0.109375 0.328125
vt 0.109375 0.468750
vt 0.062500 0.468750
vt 0.500000 0.515625
vt 0.500000 0.656250
vt 0.734375 0.437500
vt 0.734375 0.375000
vt 0.046875 0.218750
vt 0.000000 0.218750
vt 0.046875 0.281250
vt 0.687500 0.625000
vt 0.734375 0.625000
vt 0.734375 0.687500
vt 0.437500 0.937500
vt 0.578125 0.937500
vt 0.578125 1.000000
vt 0.437500 1.000000
vt 0.734375 0.562500
vt 0.437500 0.875000
vt 0.578125 0.875000
vt 0.421875 0.500000
vt 0.375000 0.500000
vt 0.375000 0.359375
vt 0.421875 0.359375
vt 0.546875 0.453125
vt 0.500000 0.453125
vt 0.500000 0.593750
vt 0.546875 0.593750
vt 0.125000 0.328125
vt 0.171875 0.328125
vt 0.171875 0.468750
vt 0.125000 0.468750
vt 0.250000 0.390625
vt 0.312500 0.390625
vt 0.187500 0.328125
vt 0.234375 0.328125
vt 0.234375 0.468750
vt 0.187500 0.468750
vt 0.000000 0.359375
vt 0.062500 0.359375
vt 0.062500 0.500000
vt 0.000000 0.500000
vt 0.765625 1.000000
vt 0.765625 0.937500
s 1
usemtl m_199f6cb1-925a-a904-c66f-374cc6875d27
f 4/1/1 7/2/1 5/3/1 2/4/1
f 3/5/2 4/6/2 2/7/2 1/8/2
f 8/9/3 3/10/3 1/2/3 6/1/3
f 7/11/4 8/12/4 6/6/4 5/5/4
f 6/13/5 1/11/5 2/14/5 5/15/5
f 7/16/6 4/17/6 3/18/6 8/19/6
f 12/20/1 15/21/1 13/22/1 10/9/1
f 11/23/2 12/24/2 10/25/2 9/26/2
f 16/27/3 11/28/3 9/29/3 14/30/3
f 15/31/4 16/32/4 14/33/4 13/34/4
f 14/35/5 9/36/5 10/37/5 13/38/5
f 15/39/6 12/40/6 11/41/6 16/42/6
f 20/43/1 23/44/1 21/45/1 18/46/1
f 19/47/2 20/48/2 18/49/2 17/50/2
f 24/51/3 19/52/3 17/53/3 22/54/3
f 23/55/4 24/56/4 22/57/4 21/58/4
f 22/59/5 17/60/5 18/61/5 21/62/5
f 23/63/6 20/64/6 19/65/6 24/66/6
f 28/67/1 31/68/1 29/69/1 26/20/1
f 27/70/2 28/71/2 26/72/2 25/73/2
f 32/74/3 27/75/3 25/76/3 30/77/3
f 31/78/4 32/79/4 30/80/4 29/81/4
f 30/82/5 25/83/5 26/84/5 29/85/5
f 31/86/6 28/85/6 27/82/6 32/87/6
f 36/88/1 39/89/1 37/90/1 34/91/1
f 35/92/2 36/93/2 34/94/2 33/87/2
f 40/95/3 35/96/3 33/89/3 38/88/3
f 39/97/4 40/98/4 38/99/4 37/100/4
f 38/101/5 33/97/5 34/102/5 37/103/5
f 39/104/6 36/105/6 35/106/6 40/107/6
f 44/108/1 47/109/1 45/96/1 42/95/1
f 43/110/2 44/111/2 42/112/2 41/113/2
f 48/114/3 43/115/3 41/109/3 46/108/3
f 47/116/4 48/117/4 46/118/4 45/119/4
f 46/27/5 41/120/5 42/121/5 45/122/5
f 47/123/6 44/122/6 43/27/6 48/124/6
f 52/125/1 55/126/1 53/127/1 50/128/1
f 51/126/2 52/129/2 50/130/2 49/127/2
f 56/129/3 51/131/3 49/132/3 54/130/3
f 55/131/4 56/14/4 54/8/4 53/132/4
f 54/115/5 49/114/5 50/36/5 53/133/5
f 55/134/6 52/26/6 51/135/6 56/136/6
f 60/137/7 63/138/7 61/139/7 58/140/7
f 59/141/2 60/142/2 58/143/2 57/144/2
f 64/142/8 59/145/8 57/146/8 62/143/8
f 63/145/4 64/147/4 62/148/4 61/146/4
f 62/149/9 57/136/9 58/134/9 61/150/9
f 63/151/10 60/150/10 59/149/10 64/152/10
f 68/153/1 71/154/1 69/155/1 66/22/1
f 67/156/2 68/157/2 66/91/2 65/158/2
f 72/159/3 67/160/3 65/161/3 70/162/3
f 71/163/4 72/37/4 70/114/4 69/59/4
f 70/164/5 65/165/5 66/166/5 69/167/5
f 71/168/6 68/81/6 67/169/6 72/170/6
f 76/133/11 79/97/11 77/100/11 74/115/11
f 75/144/2 76/171/2 74/172/2 73/19/2
f 80/173/12 75/174/12 73/175/12 78/134/12
f 79/176/4 80/177/4 78/178/4 77/13/4
f 78/179/13 73/180/13 74/181/13 77/182/13
f 79/183/14 76/182/14 75/179/14 80/184/14
f 84/185/15 87/186/15 85/151/15 82/187/15
f 83/188/2 84/189/2 82/190/2 81/191/2
f 88/192/16 83/116/16 81/119/16 86/193/16
f 87/194/4 88/195/4 86/189/4 85/188/4
f 86/196/17 81/197/17 82/198/17 85/199/17
f 87/200/18 84/199/18 83/196/18 88/201/18
f 92/202/7 95/203/7 93/167/7 90/166/7
f 91/204/2 92/95/2 90/205/2 89/206/2
f 96/73/8 91/207/8 89/208/8 94/209/8
f 95/210/4 96/45/4 94/211/4 93/192/4
f 94/212/9 89/96/9 90/109/9 93/213/9
f 95/99/10 92/115/10 91/109/10 96/213/10
f 100/214/1 103/215/1 101/4/1 98/216/1
f 99/140/2 100/139/2 98/217/2 97/176/2
f 104/162/3 99/67/3 97/215/3 102/214/3
f 103/218/4 104/219/4 102/220/4 101/221/4
f 102/150/5 97/175/5 98/174/5 101/222/5
f 103/185/6 100/222/6 99/150/6 104/187/6
f 108/223/1 111/224/1 109/225/1 106/194/1
f 107/226/2 108/227/2 106/228/2 105/217/2
f 112/229/3 107/230/3 105/231/3 110/232/3
f 111/138/4 112/233/4 110/234/4 109/139/4
f 110/235/5 105/236/5 106/237/5 109/238/5
f 111/94/6 108/239/6 107/240/6 112/241/6
f 116/242/14 119/243/14 117/244/14 114/245/14
f 115/227/2 116/246/2 114/188/2 113/228/2
f 120/247/13 115/248/13 113/249/13 118/250/13
f 119/233/4 120/251/4 118/252/4 117/234/4
f 118/253/11 113/42/11 114/58/11 117/254/11
f 119/255/12 116/256/12 115/74/12 120/257/12
f 124/258/1 127/259/1 125/260/1 122/35/1
f 123/261/2 124/262/2 122/263/2 121/264/2
f 128/50/3 123/265/3 121/259/3 126/258/3
f 127/266/4 128/267/4 126/262/4 125/261/4
f 126/268/5 121/269/5 122/270/5 125/271/5
f 127/272/6 124/273/6 123/274/6 128/275/6
f 132/276/11 135/277/11 133/278/11 130/279/11
f 131/280/2 132/281/2 130/219/2 129/218/2
f 136/282/12 131/283/12 129/284/12 134/285/12
f 135/286/4 136/287/4 134/288/4 133/289/4
f 134/290/13 129/90/13 130/89/13 133/291/13
f 135/212/14 132/96/14 131/89/14 136/291/14
