# Blender 4.3.0
# www.blender.org
mtllib satsujin_sheath.mtl
o cube.026
v -0.049210 0.202484 1.246685
v -0.049210 -0.039068 1.332223
v -0.049210 0.181621 1.187770
v -0.049210 -0.059931 1.273308
v 0.050790 -0.039068 1.332223
v 0.050790 0.202484 1.246685
v 0.050790 -0.059931 1.273308
v 0.050790 0.181621 1.187770
v -0.039835 0.094928 0.400618
v -0.039835 -0.092572 0.400618
v -0.039835 0.094928 0.006868
v -0.039835 -0.092572 0.006868
v 0.041415 -0.092572 0.400618
v 0.041415 0.094928 0.400618
v 0.041415 -0.092572 0.006868
v 0.041415 0.094928 0.006868
v -0.039835 0.108556 0.787585
v -0.039835 -0.078830 0.794128
v -0.039835 0.094814 0.394075
v -0.039835 -0.092572 0.400618
v 0.041415 -0.078830 0.794128
v 0.041415 0.108556 0.787585
v 0.041415 -0.092572 0.400618
v 0.041415 0.094814 0.394075
v -0.039835 0.135679 1.173840
v -0.039835 -0.051364 1.186919
v -0.039835 0.108213 0.781049
v -0.039835 -0.078831 0.794129
v 0.041415 -0.051364 1.186919
v 0.041415 0.135679 1.173840
v 0.041415 -0.078831 0.794129
v 0.041415 0.108213 0.781049
v -0.039835 0.176267 1.558913
v -0.039835 -0.010206 1.578512
v -0.039835 0.135109 1.167320
v -0.039835 -0.051364 1.186919
v 0.041415 -0.010206 1.578512
v 0.041415 0.176267 1.558913
v 0.041415 -0.051364 1.186919
v 0.041415 0.135109 1.167320
v -0.039835 0.212872 1.818552
v -0.039835 0.027197 1.844647
v -0.039835 0.175469 1.552418
v -0.039835 -0.010206 1.578513
v 0.041415 0.027197 1.844647
v 0.041415 0.212872 1.818552
v 0.041415 -0.010206 1.578513
v 0.041415 0.175469 1.552418
v -0.039835 0.256346 2.064445
v -0.039835 0.071694 2.097004
v -0.039835 0.211848 1.812088
v -0.039835 0.027197 1.844647
v 0.041415 0.071694 2.097004
v 0.041415 0.256346 2.064445
v 0.041415 0.027197 1.844647
v 0.041415 0.211848 1.812088
v -0.046397 0.270460 2.106699
v -0.046397 0.072883 2.141537
v -0.046397 0.247560 1.976827
v -0.046397 0.049983 2.011665
v 0.047978 0.072883 2.141537
v 0.047978 0.270460 2.106699
v 0.047978 0.049983 2.011665
v 0.047978 0.247560 1.976827
v -0.046085 0.115688 2.158530
v -0.046085 0.093285 2.172802
v -0.046085 0.095539 2.126903
v -0.046085 0.073136 2.141175
v 0.047665 0.093285 2.172802
v 0.047665 0.115688 2.158530
v 0.047665 0.073136 2.141175
v 0.047665 0.095539 2.126903
v -0.046085 0.261971 2.143547
v -0.046085 0.249767 2.140842
v -0.046085 0.270087 2.106936
v -0.046085 0.257883 2.104230
v 0.047665 0.249767 2.140842
v 0.047665 0.261971 2.143547
v 0.047665 0.257883 2.104230
v 0.047665 0.270087 2.106936
v -0.046397 0.262911 2.143210
v -0.046397 0.093032 2.173164
v -0.046397 0.256833 2.108742
v -0.046397 0.086954 2.138696
v 0.047978 0.093032 2.173164
v 0.047978 0.262911 2.143210
v 0.047978 0.086954 2.138696
v 0.047978 0.256833 2.108742
v -0.046085 0.101178 0.131868
v -0.046085 -0.098822 0.131868
v -0.046085 0.101178 0.000618
v -0.046085 -0.098822 0.000618
v 0.047665 -0.098822 0.131868
v 0.047665 0.101178 0.131868
v 0.047665 -0.098822 0.000618
v 0.047665 0.101178 0.000618
v -0.046085 0.141914 1.173404
v -0.046085 -0.057599 1.187356
v -0.046085 0.131887 1.030004
v -0.046085 -0.067626 1.043956
v 0.047665 -0.057599 1.187356
v 0.047665 0.141914 1.173404
v 0.047665 -0.067626 1.043956
v 0.047665 0.131887 1.030004
v -0.046085 0.107463 0.464725
v -0.046085 -0.113020 0.419867
v -0.046085 0.119923 0.403479
v -0.046085 -0.100560 0.358621
v 0.047665 -0.113020 0.419867
v 0.047665 0.107463 0.464725
v 0.047665 -0.100560 0.358621
v 0.047665 0.119923 0.403479
v -0.049210 0.103785 0.370106
v -0.049210 -0.102269 0.379103
v -0.049210 0.101059 0.307666
v -0.049210 -0.104995 0.316662
v 0.050790 -0.102269 0.379103
v 0.050790 0.103785 0.370106
v 0.050790 -0.104995 0.316662
v 0.050790 0.101059 0.307666
v -0.046085 0.112980 0.275926
v -0.046085 -0.080208 0.348157
v -0.046085 0.091092 0.217384
v -0.046085 -0.102096 0.289615
v 0.047665 -0.080208 0.348157
v 0.047665 0.112980 0.275926
v 0.047665 -0.102096 0.289615
v 0.047665 0.091092 0.217384
v -0.049210 0.098418 0.301797
v -0.049210 -0.103692 0.260677
v -0.049210 0.110878 0.240551
v -0.049210 -0.091231 0.199432
v 0.050790 -0.103692 0.260677
v 0.050790 0.098418 0.301797
v 0.050790 -0.091231 0.199432
v 0.050790 0.110878 0.240551
v -0.046085 0.113554 0.192128
v -0.046085 -0.089242 0.229714
v -0.046085 0.102164 0.130675
v -0.046085 -0.100632 0.168261
v 0.047665 -0.089242 0.229714
v 0.047665 0.113554 0.192128
v 0.047665 -0.100632 0.168261
v 0.047665 0.102164 0.130675
v -0.049210 0.111129 0.480693
v -0.049210 -0.090981 0.521812
v -0.049210 0.098668 0.419447
v -0.049210 -0.103441 0.460567
v 0.050790 -0.090981 0.521812
v 0.050790 0.111129 0.480693
v 0.050790 -0.103441 0.460567
v 0.050790 0.098668 0.419447
v -0.046085 0.101338 0.582229
v -0.046085 -0.094647 0.542355
v -0.046085 0.113799 0.520983
v -0.046085 -0.082186 0.481110
v 0.047665 -0.094647 0.542355
v 0.047665 0.101338 0.582229
v 0.047665 -0.082186 0.481110
v 0.047665 0.113799 0.520983
v -0.050772 0.192491 0.951088
v -0.050772 0.127863 0.939693
v -0.050772 0.212841 0.835681
v -0.050772 0.148213 0.824286
v 0.052353 0.127863 0.939693
v 0.052353 0.192491 0.951088
v 0.052353 0.148213 0.824286
v 0.052353 0.212841 0.835681
v -0.051085 0.221296 1.246309
v -0.051085 0.153741 1.252220
v -0.051085 0.191826 0.909471
v -0.051085 0.124272 0.915381
v 0.052665 0.153741 1.252220
v 0.052665 0.221296 1.246309
v 0.052665 0.124272 0.915381
v 0.052665 0.191826 0.909471
v -0.050772 0.272072 1.316006
v -0.050772 0.206931 1.346382
v -0.050772 0.217264 1.198469
v -0.050772 0.152123 1.228845
v 0.052353 0.206931 1.346382
v 0.052353 0.272072 1.316006
v 0.052353 0.152123 1.228845
v 0.052353 0.217264 1.198469
v -0.046085 0.175983 1.026412
v -0.046085 -0.073779 1.037317
v -0.046085 0.173257 0.963971
v -0.046085 -0.076505 0.974876
v 0.047665 -0.073779 1.037317
v 0.047665 0.175983 1.026412
v 0.047665 -0.076505 0.974876
v 0.047665 0.173257 0.963971
v -0.049210 0.169226 0.981561
v -0.049210 -0.086780 0.970384
v -0.049210 0.171952 0.919121
v -0.049210 -0.084054 0.907943
v 0.050790 -0.086780 0.970384
v 0.050790 0.169226 0.981561
v 0.050790 -0.084054 0.907943
v 0.050790 0.171952 0.919121
v -0.046085 0.194732 1.229872
v -0.046085 -0.053130 1.262503
v -0.046085 0.186574 1.167907
v -0.046085 -0.061287 1.200538
v 0.047665 -0.053130 1.262503
v 0.047665 0.194732 1.229872
v 0.047665 -0.061287 1.200538
v 0.047665 0.186574 1.167907
vn -0.0000 -0.9426 0.3338
vn -1.0000 -0.0000 -0.0000
vn -0.0000 0.9426 -0.3338
vn 1.0000 -0.0000 -0.0000
vn -0.0000 0.3338 0.9426
vn -0.0000 -0.3338 -0.9426
vn -0.0000 -1.0000 -0.0000
vn -0.0000 1.0000 -0.0000
vn -0.0000 -0.0000 1.0000
vn -0.0000 -0.0000 -1.0000
vn -0.0000 -0.9994 0.0349
vn -0.0000 0.9994 -0.0349
vn -0.0000 0.0349 0.9994
vn -0.0000 -0.0349 -0.9994
vn -0.0000 -0.9976 0.0698
vn -0.0000 0.9976 -0.0698
vn -0.0000 0.0698 0.9976
vn -0.0000 -0.0698 -0.9976
vn -0.0000 -0.9945 0.1045
vn -0.0000 0.9945 -0.1045
vn -0.0000 0.1045 0.9945
vn -0.0000 -0.1045 -0.9945
vn -0.0000 -0.9903 0.1392
vn -0.0000 0.9903 -0.1392
vn -0.0000 0.1392 0.9903
vn -0.0000 -0.1392 -0.9903
vn -0.0000 -0.9848 0.1736
vn -0.0000 0.9848 -0.1736
vn -0.0000 0.1736 0.9848
vn -0.0000 -0.1736 -0.9848
vn -0.0000 -0.8434 0.5373
vn -0.0000 0.8434 -0.5373
vn -0.0000 0.5373 0.8434
vn -0.0000 -0.5373 -0.8434
vn -0.0000 -0.9763 -0.2164
vn -0.0000 0.9763 0.2164
vn -0.0000 -0.2164 0.9763
vn -0.0000 0.2164 -0.9763
vn -0.0000 -0.9799 -0.1994
vn -0.0000 0.9799 0.1994
vn -0.0000 -0.1994 0.9799
vn -0.0000 0.1994 -0.9799
vn -0.0000 -0.9990 0.0436
vn -0.0000 0.9990 -0.0436
vn -0.0000 0.0436 0.9990
vn -0.0000 -0.0436 -0.9990
vn -0.0000 -0.9367 0.3502
vn -0.0000 0.9367 -0.3502
vn -0.0000 0.3502 0.9367
vn -0.0000 -0.3502 -0.9367
vn -0.0000 -0.9833 0.1822
vn -0.0000 0.9833 -0.1822
vn -0.0000 0.1822 0.9833
vn -0.0000 -0.1822 -0.9833
vn -0.0000 -0.9799 0.1994
vn -0.0000 0.9799 -0.1994
vn -0.0000 0.1994 0.9799
vn -0.0000 -0.1994 -0.9799
vn -0.0000 -0.9848 -0.1736
vn -0.0000 0.9848 0.1736
vn -0.0000 -0.1736 0.9848
vn -0.0000 0.1736 -0.9848
vn -0.0000 -0.9962 0.0872
vn -0.0000 0.9962 -0.0872
vn -0.0000 0.0872 0.9962
vn -0.0000 -0.0872 -0.9962
vn -0.0000 -0.9063 0.4226
vn -0.0000 0.9063 -0.4226
vn -0.0000 0.4226 0.9063
vn -0.0000 -0.4226 -0.9063
vn -0.0000 -0.9990 -0.0436
vn -0.0000 0.9990 0.0436
vn -0.0000 -0.0436 0.9990
vn -0.0000 0.0436 -0.9990
vn -0.0000 -0.9914 0.1305
vn -0.0000 0.9914 -0.1305
vn -0.0000 0.1305 0.9914
vn -0.0000 -0.1305 -0.9914
vt 0.781250 0.750000
vt 0.828125 0.750000
vt 0.828125 0.781250
vt 0.781250 0.781250
vt 0.750000 0.468750
vt 0.875000 0.468750
vt 0.875000 0.500000
vt 0.750000 0.500000
vt 0.781250 0.718750
vt 0.828125 0.718750
vt 0.750000 0.437500
vt 0.875000 0.437500
vt 0.453125 0.281250
vt 0.406250 0.281250
vt 0.406250 0.156250
vt 0.453125 0.156250
vt 0.515625 0.156250
vt 0.468750 0.156250
vt 0.468750 0.281250
vt 0.515625 0.281250
vt 0.281250 0.359375
vt 0.312500 0.359375
vt 0.312500 0.562500
vt 0.281250 0.562500
vt 0.000000 0.796875
vt 0.078125 0.796875
vt 0.078125 1.000000
vt 0.000000 1.000000
vt 0.343750 0.359375
vt 0.343750 0.562500
vt 0.093750 0.796875
vt 0.171875 0.796875
vt 0.171875 1.000000
vt 0.093750 1.000000
vt 0.656250 0.687500
vt 0.625000 0.687500
vt 0.625000 0.609375
vt 0.656250 0.609375
vt 0.531250 0.296875
vt 0.500000 0.296875
vt 0.500000 0.375000
vt 0.531250 0.375000
vt 0.375000 0.359375
vt 0.375000 0.562500
vt 0.187500 0.796875
vt 0.265625 0.796875
vt 0.265625 1.000000
vt 0.187500 1.000000
vt 0.406250 0.359375
vt 0.406250 0.562500
vt 0.000000 0.578125
vt 0.078125 0.578125
vt 0.078125 0.781250
vt 0.000000 0.781250
vt 0.656250 0.500000
vt 0.625000 0.500000
vt 0.625000 0.421875
vt 0.656250 0.421875
vt 0.656250 0.328125
vt 0.625000 0.328125
vt 0.625000 0.406250
vt 0.656250 0.406250
vt 0.437500 0.359375
vt 0.437500 0.562500
vt 0.093750 0.578125
vt 0.171875 0.578125
vt 0.171875 0.781250
vt 0.093750 0.781250
vt 0.468750 0.359375
vt 0.468750 0.562500
vt 0.187500 0.578125
vt 0.265625 0.578125
vt 0.265625 0.781250
vt 0.187500 0.781250
vt 0.031250 0.343750
vt 0.000000 0.343750
vt 0.000000 0.265625
vt 0.031250 0.265625
vt 0.062500 0.265625
vt 0.062500 0.343750
vt 0.468750 0.796875
vt 0.500000 0.796875
vt 0.500000 1.000000
vt 0.468750 1.000000
vt 0.281250 0.796875
vt 0.359375 0.796875
vt 0.359375 1.000000
vt 0.281250 1.000000
vt 0.468750 0.578125
vt 0.500000 0.578125
vt 0.500000 0.781250
vt 0.468750 0.781250
vt 0.281250 0.578125
vt 0.359375 0.578125
vt 0.359375 0.781250
vt 0.281250 0.781250
vt 0.687500 0.968750
vt 0.656250 0.968750
vt 0.656250 0.890625
vt 0.687500 0.890625
vt 0.093750 0.265625
vt 0.093750 0.343750
vt 0.500000 0.671875
vt 0.531250 0.671875
vt 0.531250 0.812500
vt 0.500000 0.812500
vt 0.375000 0.859375
vt 0.453125 0.859375
vt 0.453125 1.000000
vt 0.375000 1.000000
vt 0.500000 0.359375
vt 0.500000 0.500000
vt 0.468750 0.500000
vt 0.375000 0.703125
vt 0.453125 0.703125
vt 0.453125 0.843750
vt 0.375000 0.843750
vt 0.125000 0.343750
vt 0.125000 0.265625
vt 0.156250 0.265625
vt 0.156250 0.343750
vt 0.531250 0.500000
vt 0.453125 0.562500
vt 0.453125 0.687500
vt 0.375000 0.687500
vt 0.125000 0.468750
vt 0.093750 0.468750
vt 0.000000 0.437500
vt 0.078125 0.437500
vt 0.078125 0.562500
vt 0.000000 0.562500
vt 0.187500 0.343750
vt 0.187500 0.265625
vt 0.218750 0.265625
vt 0.218750 0.343750
vt 0.343750 0.281250
vt 0.375000 0.281250
vt 0.375000 0.343750
vt 0.343750 0.343750
vt 0.562500 0.500000
vt 0.562500 0.562500
vt 0.406250 0.343750
vt 0.500000 0.937500
vt 0.593750 0.937500
vt 0.593750 1.000000
vt 0.531250 0.656250
vt 0.500000 0.656250
vt 0.500000 0.562500
vt 0.531250 0.562500
vt 0.156250 0.375000
vt 0.125000 0.375000
vt 0.156250 0.468750
vt 0.718750 0.890625
vt 0.718750 0.906250
vt 0.687500 0.906250
vt 0.437500 0.296875
vt 0.453125 0.296875
vt 0.453125 0.312500
vt 0.437500 0.312500
vt 0.687500 0.859375
vt 0.718750 0.859375
vt 0.718750 0.875000
vt 0.687500 0.875000
vt 0.687500 0.546875
vt 0.703125 0.546875
vt 0.703125 0.562500
vt 0.687500 0.562500
vt 0.718750 0.843750
vt 0.687500 0.843750
vt 0.687500 0.828125
vt 0.718750 0.828125
vt 0.718750 0.796875
vt 0.687500 0.796875
vt 0.687500 0.812500
vt 0.718750 0.812500
vt 0.687500 0.765625
vt 0.718750 0.765625
vt 0.718750 0.781250
vt 0.687500 0.781250
vt 0.468750 0.296875
vt 0.484375 0.296875
vt 0.484375 0.312500
vt 0.468750 0.312500
vt 0.687500 0.734375
vt 0.718750 0.734375
vt 0.718750 0.750000
vt 0.687500 0.750000
vt 0.546875 0.296875
vt 0.546875 0.312500
vt 0.531250 0.312500
vt 0.718750 0.687500
vt 0.687500 0.687500
vt 0.687500 0.671875
vt 0.718750 0.671875
vt 0.718750 0.640625
vt 0.687500 0.640625
vt 0.687500 0.656250
vt 0.718750 0.656250
vt 0.687500 0.609375
vt 0.718750 0.609375
vt 0.718750 0.625000
vt 0.687500 0.625000
vt 0.656250 0.515625
vt 0.734375 0.515625
vt 0.734375 0.531250
vt 0.656250 0.531250
vt 0.687500 0.578125
vt 0.718750 0.578125
vt 0.718750 0.593750
vt 0.687500 0.593750
vt 0.656250 0.484375
vt 0.734375 0.484375
vt 0.734375 0.500000
vt 0.656250 0.812500
vt 0.656250 0.734375
vt 0.312500 0.265625
vt 0.281250 0.265625
vt 0.281250 0.343750
vt 0.312500 0.343750
vt 0.437500 0.281250
vt 0.437500 0.343750
vt 0.500000 0.875000
vt 0.593750 0.875000
vt 0.687500 0.531250
vt 0.656250 0.593750
vt 0.593750 0.812500
vt 0.171875 0.468750
vt 0.140625 0.468750
vt 0.140625 0.375000
vt 0.171875 0.375000
vt 0.234375 0.375000
vt 0.234375 0.468750
vt 0.343750 0.265625
vt 0.093750 0.484375
vt 0.187500 0.484375
vt 0.187500 0.562500
vt 0.093750 0.562500
vt 0.281250 0.484375
vt 0.625000 0.562500
vt 0.656250 0.562500
vt 0.625000 0.593750
vt 0.531250 0.687500
vt 0.625000 0.718750
vt 0.531250 0.718750
vt 0.468750 0.343750
vt 0.625000 0.656250
vt 0.281250 0.468750
vt 0.250000 0.468750
vt 0.250000 0.375000
vt 0.281250 0.375000
vt 0.562500 0.656250
vt 0.500000 0.312500
vt 0.500000 0.343750
vt 0.531250 0.468750
vt 0.625000 0.468750
vt 0.562500 0.312500
vt 0.562500 0.343750
vt 0.531250 0.343750
vt 0.531250 0.437500
vt 0.625000 0.437500
vt 0.031250 0.437500
vt 0.062500 0.437500
vt 0.656250 0.437500
vt 0.687500 0.437500
vt 0.687500 0.468750
vt 0.656250 0.468750
vt 0.562500 0.781250
vt 0.656250 0.781250
vt 0.562500 0.812500
vt 0.593750 0.312500
vt 0.593750 0.343750
vt 0.562500 0.750000
vt 0.656250 0.750000
vt 0.093750 0.437500
vt 0.593750 0.562500
vt 0.593750 0.656250
vt 0.687500 0.406250
vt 0.562500 0.718750
vt 0.656250 0.718750
vt 0.625000 0.312500
vt 0.625000 0.343750
vt 0.562500 0.531250
vt 0.562500 0.437500
vt 0.593750 0.437500
vt 0.656250 0.375000
vt 0.687500 0.375000
vt 0.656250 0.343750
vt 0.687500 0.343750
vt 0.593750 0.968750
vt 0.687500 1.000000
vt 0.625000 0.968750
vt 0.625000 0.875000
vt 0.656250 0.312500
vt 0.687500 0.312500
vt 0.593750 0.843750
vt 0.718750 0.968750
vt 0.718750 1.000000
vt 0.656250 0.875000
vt 0.687500 0.937500
vt 0.718750 0.937500
vt 0.218750 0.375000
vt 0.718750 0.718750
vt 0.218750 0.281250
vt 0.250000 0.281250
vt 0.281250 0.281250
vt 0.125000 0.187500
vt 0.171875 0.187500
vt 0.171875 0.250000
vt 0.125000 0.250000
vt 0.531250 0.750000
vt 0.281250 0.187500
vt 0.328125 0.187500
vt 0.328125 0.250000
vt 0.281250 0.250000
vt 0.187500 0.187500
vt 0.218750 0.187500
vt 0.218750 0.250000
vt 0.187500 0.250000
vt 0.828125 1.000000
vt 0.781250 1.000000
vt 0.781250 0.968750
vt 0.828125 0.968750
vt 0.828125 0.937500
vt 0.781250 0.937500
vt 0.687500 0.296875
vt 0.734375 0.296875
vt 0.734375 0.468750
vt 0.531250 0.109375
vt 0.562500 0.109375
vt 0.562500 0.281250
vt 0.531250 0.281250
vt 0.562500 0.140625
vt 0.609375 0.140625
vt 0.609375 0.312500
vt 0.687500 0.109375
vt 0.718750 0.109375
vt 0.718750 0.281250
vt 0.687500 0.281250
vt 0.796875 0.312500
vt 0.750000 0.312500
vt 0.750000 0.281250
vt 0.796875 0.281250
vt 0.046875 0.187500
vt 0.000000 0.187500
vt 0.000000 0.218750
vt 0.046875 0.218750
vt 0.750000 0.375000
vt 0.796875 0.375000
vt 0.796875 0.437500
vt 0.718750 0.187500
vt 0.750000 0.187500
vt 0.750000 0.250000
vt 0.718750 0.250000
vt 0.781250 0.187500
vt 0.781250 0.250000
vt 0.781250 0.687500
vt 0.828125 0.687500
vt 0.828125 0.656250
vt 0.781250 0.656250
vt 0.781250 0.875000
vt 0.828125 0.875000
vt 0.828125 0.906250
vt 0.781250 0.906250
vt 0.718750 0.531250
vt 0.843750 0.531250
vt 0.843750 0.562500
vt 0.718750 0.562500
vt 0.781250 0.843750
vt 0.828125 0.843750
vt 0.843750 0.250000
vt 0.843750 0.281250
vt 0.765625 0.875000
vt 0.765625 0.750000
vt 0.265625 0.156250
vt 0.218750 0.156250
vt 0.265625 0.281250
vt 0.062500 0.187500
vt 0.109375 0.187500
vt 0.109375 0.218750
vt 0.062500 0.218750
vt 0.843750 0.593750
vt 0.843750 0.625000
vt 0.671875 0.312500
vt 0.625000 0.187500
vt 0.671875 0.187500
vt 0.765625 1.000000
vt 0.781250 0.812500
vt 0.828125 0.812500
vt 0.125000 0.218750
vt 0.000000 0.250000
vt 0.875000 0.531250
vt 0.750000 0.531250
vt 0.765625 0.625000
vt 0.390625 0.156250
vt 0.343750 0.156250
vt 0.390625 0.281250
s 1
usemtl m_65ffc74c-59da-c656-3f57-ac187f8e6dac.001
f 4/1/1 7/2/1 5/3/1 2/4/1
f 3/5/2 4/6/2 2/7/2 1/8/2
f 8/9/3 3/10/3 1/2/3 6/1/3
f 7/11/4 8/12/4 6/6/4 5/5/4
f 6/13/5 1/14/5 2/15/5 5/16/5
f 7/17/6 4/18/6 3/19/6 8/20/6
f 12/21/7 15/22/7 13/23/7 10/24/7
f 11/25/2 12/26/2 10/27/2 9/28/2
f 16/22/8 11/29/8 9/30/8 14/23/8
f 15/31/4 16/32/4 14/33/4 13/34/4
f 14/35/9 9/36/9 10/37/9 13/38/9
f 15/39/10 12/40/10 11/41/10 16/42/10
f 20/29/11 23/43/11 21/44/11 18/30/11
f 19/45/2 20/46/2 18/47/2 17/48/2
f 24/43/12 19/49/12 17/50/12 22/44/12
f 23/51/4 24/52/4 22/53/4 21/54/4
f 22/55/13 17/56/13 18/57/13 21/58/13
f 23/59/14 20/60/14 19/61/14 24/62/14
f 28/49/15 31/63/15 29/64/15 26/50/15
f 27/65/2 28/66/2 26/67/2 25/68/2
f 32/63/16 27/69/16 25/70/16 30/64/16
f 31/71/4 32/72/4 30/73/4 29/74/4
f 30/75/17 25/76/17 26/77/17 29/78/17
f 31/79/18 28/78/18 27/75/18 32/80/18
f 36/81/19 39/82/19 37/83/19 34/84/19
f 35/85/2 36/86/2 34/87/2 33/88/2
f 40/89/20 35/90/20 33/91/20 38/92/20
f 39/93/4 40/94/4 38/95/4 37/96/4
f 38/97/21 33/98/21 34/99/21 37/100/21
f 39/101/22 36/79/22 35/80/22 40/102/22
f 44/103/23 47/104/23 45/105/23 42/106/23
f 43/107/2 44/108/2 42/109/2 41/110/2
f 48/69/24 43/111/24 41/112/24 46/113/24
f 47/114/4 48/115/4 46/116/4 45/117/4
f 46/118/25 41/102/25 42/101/25 45/119/25
f 47/120/26 44/119/26 43/118/26 48/121/26
f 52/41/27 55/42/27 53/122/27 50/112/27
f 51/44/2 52/123/2 50/124/2 49/125/2
f 56/102/28 51/118/28 49/126/28 54/127/28
f 55/128/4 56/129/4 54/130/4 53/131/4
f 54/132/29 49/121/29 50/120/29 53/133/29
f 55/134/30 52/133/30 51/132/30 56/135/30
f 60/136/27 63/137/27 61/138/27 58/139/27
f 59/113/2 60/140/2 58/141/2 57/70/2
f 64/137/28 59/14/28 57/142/28 62/138/28
f 63/143/4 64/144/4 62/145/4 61/83/4
f 62/146/29 57/147/29 58/148/29 61/149/29
f 63/150/30 60/151/30 59/126/30 64/152/30
f 68/100/31 71/153/31 69/154/31 66/155/31
f 67/156/2 68/157/2 66/158/2 65/159/2
f 72/160/32 67/161/32 65/162/32 70/163/32
f 71/164/4 72/165/4 70/166/4 69/167/4
f 70/168/33 65/169/33 66/170/33 69/171/33
f 71/172/34 68/173/34 67/174/34 72/175/34
f 76/176/35 79/177/35 77/178/35 74/179/35
f 75/180/2 76/181/2 74/182/2 73/183/2
f 80/184/36 75/185/36 73/186/36 78/187/36
f 79/39/4 80/188/4 78/189/4 77/190/4
f 78/191/37 73/192/37 74/193/37 77/194/37
f 79/195/38 76/196/38 75/197/38 80/198/38
f 84/199/27 87/200/27 85/201/27 82/202/27
f 83/203/2 84/204/2 82/205/2 81/206/2
f 88/207/28 83/208/28 81/209/28 86/210/28
f 87/211/4 88/212/4 86/213/4 85/55/4
f 86/174/29 81/214/29 82/215/29 85/184/29
f 87/216/30 84/217/30 83/218/30 88/219/30
f 92/14/7 95/220/7 93/221/7 90/142/7
f 91/222/2 92/223/2 90/144/2 89/143/2
f 96/206/8 91/224/8 89/210/8 94/225/8
f 95/106/4 96/226/4 94/223/4 93/222/4
f 94/227/9 89/228/9 90/229/9 93/230/9
f 95/231/10 92/230/10 91/227/10 96/232/10
f 100/216/15 103/233/15 101/139/15 98/219/15
f 99/234/2 100/235/2 98/236/2 97/237/2
f 104/38/16 99/199/16 97/192/16 102/35/16
f 103/235/4 104/238/4 102/24/4 101/236/4
f 102/227/17 97/228/17 98/229/17 101/230/17
f 103/230/18 100/229/18 99/228/18 104/227/18
f 108/239/39 111/240/39 109/225/39 106/241/39
f 107/242/2 108/36/2 106/243/2 105/244/2
f 112/159/40 107/183/40 105/245/40 110/221/40
f 111/146/4 112/246/4 110/36/4 109/242/4
f 110/247/41 105/248/41 106/249/41 109/250/41
f 111/141/42 108/149/42 107/146/42 112/251/42
f 116/183/43 119/252/43 117/253/43 114/245/43
f 115/254/2 116/255/2 114/56/2 113/122/2
f 120/190/44 115/256/44 113/257/44 118/258/44
f 119/259/4 120/260/4 118/255/4 117/254/4
f 118/261/45 113/128/45 114/76/45 117/75/45
f 119/80/46 116/75/46 115/261/46 120/262/46
f 124/263/47 127/264/47 125/265/47 122/266/47
f 123/267/2 124/268/2 122/214/2 121/269/2
f 128/256/48 123/270/48 121/271/48 126/257/48
f 127/272/4 128/273/4 126/268/4 125/267/4
f 126/274/49 121/262/49 122/80/49 125/102/49
f 127/275/50 124/141/50 123/251/50 128/276/50
f 132/62/39 135/277/39 133/264/39 130/263/39
f 131/278/2 132/279/2 130/273/2 129/272/2
f 136/270/40 131/280/40 129/281/40 134/271/40
f 135/282/4 136/206/4 134/240/4 133/141/4
f 134/283/41 129/259/41 130/258/41 133/257/41
f 135/271/42 132/257/42 131/283/42 136/284/42
f 140/285/51 143/286/51 141/277/51 138/62/51
f 139/140/2 140/55/2 138/206/2 137/282/2
f 144/287/52 139/288/52 137/286/52 142/285/52
f 143/289/4 144/97/4 142/290/4 141/145/4
f 142/291/53 137/289/53 138/223/53 141/292/53
f 143/239/54 140/275/54 139/276/54 144/246/54
f 148/293/55 151/294/55 149/288/55 146/287/55
f 147/295/2 148/169/2 146/163/2 145/223/2
f 152/97/56 147/296/56 145/297/56 150/290/56
f 151/226/4 152/174/4 150/169/4 149/295/4
f 150/260/57 145/284/57 146/271/57 149/281/57
f 151/298/58 148/292/58 147/291/58 152/98/58
f 156/299/39 159/300/39 157/296/39 154/97/39
f 155/118/2 156/135/2 154/301/2 153/151/2
f 160/155/40 155/154/40 153/300/40 158/299/40
f 159/36/4 160/191/4 158/302/4 157/243/4
f 158/249/41 153/301/41 154/303/41 157/304/41
f 159/305/42 156/304/42 155/249/42 160/250/42
f 164/306/59 167/307/59 165/308/59 162/309/59
f 163/310/2 164/272/2 162/269/2 161/105/2
f 168/311/60 163/312/60 161/313/60 166/314/60
f 167/315/4 168/316/4 166/317/4 165/318/4
f 166/319/61 161/320/61 162/321/61 165/322/61
f 167/323/62 164/324/62 163/321/62 168/322/62
f 172/325/63 175/326/63 173/327/63 170/265/63
f 171/328/2 172/329/2 170/330/2 169/331/2
f 176/332/64 171/333/64 169/334/64 174/256/64
f 175/335/4 176/336/4 174/337/4 173/338/4
f 174/339/65 169/340/65 170/341/65 173/342/65
f 175/343/66 172/344/66 171/345/66 176/346/66
f 180/347/67 183/348/67 181/349/67 178/11/67
f 179/350/2 180/351/2 178/352/2 177/353/2
f 184/340/68 179/339/68 177/348/68 182/347/68
f 183/351/4 184/354/4 182/355/4 181/352/4
f 182/10/69 177/9/69 178/356/69 181/357/69
f 183/358/70 180/359/70 179/356/70 184/357/70
f 188/360/43 191/361/43 189/362/43 186/363/43
f 187/364/2 188/365/2 186/366/2 185/367/2
f 192/368/44 187/369/44 185/361/44 190/360/44
f 191/353/4 192/370/4 190/371/4 189/337/4
f 190/372/45 185/162/45 186/186/45 189/373/45
f 191/374/46 188/375/46 187/303/46 192/376/46
f 196/377/71 199/378/71 197/379/71 194/380/71
f 195/209/2 196/381/2 194/382/2 193/201/2
f 200/363/72 195/362/72 193/323/72 198/324/72
f 199/367/4 200/366/4 198/381/4 197/209/4
f 198/383/73 193/280/73 194/384/73 197/385/73
f 199/372/74 196/162/74 195/297/74 200/386/74
f 204/387/75 207/388/75 205/369/75 202/368/75
f 203/345/2 204/389/2 202/309/2 201/390/2
f 208/4/76 203/3/76 201/388/76 206/387/76
f 207/8/4 208/7/4 206/391/4 205/392/4
f 206/373/77 201/186/77 202/201/77 205/393/77
f 207/394/78 204/395/78 203/136/78 208/396/78
