# Blender 4.3.0
# www.blender.org
mtllib tormented_mind.mtl
o cube.024
v 0.036091 0.170921 -1.525196
v 0.036091 0.163191 -1.528398
v 0.036091 0.163543 -1.507383
v 0.036091 0.155813 -1.510585
v -0.035939 0.163191 -1.528398
v -0.035939 0.170921 -1.525196
v -0.035939 0.155813 -1.510585
v -0.035939 0.163543 -1.507383
v 0.043730 0.051504 -1.771642
v 0.043730 -0.108563 -1.771642
v 0.043730 0.051504 1.473348
v 0.043730 -0.108563 1.473348
v -0.043579 -0.108563 -1.771642
v -0.043579 0.051504 -1.771642
v -0.043579 -0.108563 1.473348
v -0.043579 0.051504 1.473348
v 0.035727 0.163550 -1.650865
v 0.035727 -0.467986 -1.650865
v 0.035727 0.163550 -1.397668
v 0.035727 -0.467986 -1.397668
v -0.035576 -0.467986 -1.650865
v -0.035576 0.163550 -1.650865
v -0.035576 -0.467986 -1.397668
v -0.035576 0.163550 -1.397668
v 0.051006 0.177220 -1.532749
v 0.051006 -0.028569 -1.738539
v 0.051006 -0.028569 -1.326959
v 0.051006 -0.234359 -1.532749
v -0.050855 -0.028569 -1.738539
v -0.050855 0.177220 -1.532749
v -0.050855 -0.234359 -1.532749
v -0.050855 -0.028569 -1.326959
v 0.043730 -0.465075 -1.808021
v 0.043730 -0.748830 -1.808021
v 0.043730 -0.465075 -1.240512
v 0.043730 -0.748830 -1.240512
v -0.043579 -0.748830 -1.808021
v -0.043579 -0.465075 -1.808021
v -0.043579 -0.748830 -1.240512
v -0.043579 -0.465075 -1.240512
v 0.044094 -0.466312 -1.357928
v 0.044094 -0.749305 -1.240708
v 0.044094 -0.351877 -1.081657
v 0.044094 -0.634870 -0.964437
v -0.043943 -0.749305 -1.240708
v -0.043943 -0.466312 -1.357928
v -0.043943 -0.634870 -0.964437
v -0.043943 -0.351877 -1.081657
v 0.044458 -0.401873 -1.198741
v 0.044458 -0.635702 -0.964913
v 0.044458 -0.267081 -1.063949
v 0.044458 -0.500910 -0.830120
v -0.044307 -0.635702 -0.964913
v -0.044307 -0.401873 -1.198741
v -0.044307 -0.500910 -0.830120
v -0.044307 -0.267081 -1.063949
v 0.035363 -0.157717 -1.526582
v 0.035363 -0.505240 -1.382633
v 0.035363 -0.061101 -1.293331
v 0.035363 -0.408625 -1.149382
v -0.035212 -0.505240 -1.382633
v -0.035212 -0.157717 -1.526582
v -0.035212 -0.408625 -1.149382
v -0.035212 -0.061101 -1.293331
v 0.036454 0.408016 -1.771642
v 0.036454 0.051504 -1.771642
v 0.036454 0.408016 -1.647954
v 0.036454 0.051504 -1.647954
v -0.036303 0.051504 -1.771642
v -0.036303 0.408016 -1.771642
v -0.036303 0.051504 -1.647954
v -0.036303 0.408016 -1.647954
v 0.036091 0.209206 -1.617622
v 0.036091 0.166185 -1.635442
v 0.036091 0.170504 -1.524187
v 0.036091 0.127483 -1.542007
v -0.035939 0.166185 -1.635442
v -0.035939 0.209206 -1.617622
v -0.035939 0.127483 -1.542007
v -0.035939 0.170504 -1.524187
v 0.036309 0.269290 -1.652959
v 0.036309 0.197469 -1.724780
v 0.036309 0.192325 -1.575994
v 0.036309 0.120504 -1.647815
v -0.036158 0.197469 -1.724780
v -0.036158 0.269290 -1.652959
v -0.036158 0.120504 -1.647815
v -0.036158 0.192325 -1.575994
v 0.036818 0.470268 -1.709905
v 0.036818 0.408016 -1.772157
v 0.036818 0.408016 -1.647654
v 0.036818 0.345765 -1.709905
v -0.036667 0.408016 -1.772157
v -0.036667 0.470268 -1.709905
v -0.036667 0.345765 -1.709905
v -0.036667 0.408016 -1.647654
v 0.036454 0.029730 -2.010730
v 0.036454 -0.086682 -2.010730
v 0.036454 0.029730 -1.770630
v 0.036454 -0.086682 -1.770630
v -0.036303 -0.086682 -2.010730
v -0.036303 0.029730 -2.010730
v -0.036303 -0.086682 -1.770630
v -0.036303 0.029730 -1.770630
v 0.036818 0.029589 -2.010730
v 0.036818 -0.028803 -2.069123
v 0.036818 -0.028803 -1.952338
v 0.036818 -0.087196 -2.010730
v -0.036667 -0.028803 -2.069123
v -0.036667 0.029589 -2.010730
v -0.036667 -0.087196 -2.010730
v -0.036667 -0.028803 -1.952338
v 0.035727 0.028835 -1.824467
v 0.035727 0.010014 -1.816671
v 0.035727 0.050553 -1.772036
v 0.035727 0.031732 -1.764240
v -0.035576 0.010014 -1.816671
v -0.035576 0.028835 -1.824467
v -0.035576 0.031732 -1.764240
v -0.035576 0.050553 -1.772036
v 0.058282 0.066055 1.284178
v 0.058282 -0.123115 1.284178
v 0.058282 0.066055 1.480624
v 0.058282 -0.123115 1.480624
v -0.058131 -0.123115 1.284178
v -0.058131 0.066055 1.284178
v -0.058131 -0.123115 1.480624
v -0.058131 0.066055 1.480624
v 0.051006 0.058779 -0.622072
v 0.051006 -0.115839 -0.622072
v 0.051006 0.058779 1.291454
v 0.051006 -0.115839 1.291454
v -0.050855 -0.115839 -0.622072
v -0.050855 0.058779 -0.622072
v -0.050855 -0.115839 1.291454
v -0.050855 0.058779 1.291454
v 0.058282 0.066055 -0.818517
v 0.058282 -0.123115 -0.818517
v 0.058282 0.066055 -0.622072
v 0.058282 -0.123115 -0.622072
v -0.058131 -0.123115 -0.818517
v -0.058131 0.066055 -0.818517
v -0.058131 -0.123115 -0.622072
v -0.058131 0.066055 -0.622072
v 0.058282 0.066055 1.160490
v 0.058282 -0.123115 1.160490
v 0.058282 0.066055 1.233248
v 0.058282 -0.123115 1.233248
v -0.058131 -0.123115 1.160490
v -0.058131 0.066055 1.160490
v -0.058131 -0.123115 1.233248
v -0.058131 0.066055 1.233248
v 0.058282 0.066055 0.898563
v 0.058282 -0.123115 0.898563
v 0.058282 0.066055 1.095008
v 0.058282 -0.123115 1.095008
v -0.058131 -0.123115 0.898563
v -0.058131 0.066055 0.898563
v -0.058131 -0.123115 1.095008
v -0.058131 0.066055 1.095008
v 0.058282 0.066055 -0.949481
v 0.058282 -0.123115 -0.949481
v 0.058282 0.066055 -0.876723
v 0.058282 -0.123115 -0.876723
v -0.058131 -0.123115 -0.949481
v -0.058131 0.066055 -0.949481
v -0.058131 -0.123115 -0.876723
v -0.058131 0.066055 -0.876723
v 0.058282 0.066055 -1.094996
v 0.058282 -0.123115 -1.094996
v 0.058282 0.066055 -1.022239
v 0.058282 -0.123115 -1.022239
v -0.058131 -0.123115 -1.094996
v -0.058131 0.066055 -1.094996
v -0.058131 -0.123115 -1.022239
v -0.058131 0.066055 -1.022239
v 0.058282 0.066055 -1.240512
v 0.058282 -0.123115 -1.240512
v 0.058282 0.066055 -1.167754
v 0.058282 -0.123115 -1.167754
v -0.058131 -0.123115 -1.240512
v -0.058131 0.066055 -1.240512
v -0.058131 -0.123115 -1.167754
v -0.058131 0.066055 -1.167754
v 0.058282 0.015125 -0.622072
v 0.058282 -0.072184 -0.622072
v 0.058282 0.015125 0.898563
v 0.058282 -0.072184 0.898563
v -0.058131 -0.072184 -0.622072
v -0.058131 0.015125 -0.622072
v -0.058131 -0.072184 0.898563
v -0.058131 0.015125 0.898563
v 0.036091 -0.085281 -1.807657
v 0.036091 -0.468350 -1.807657
v 0.036091 -0.085281 -1.650137
v 0.036091 -0.468350 -1.650137
v -0.035939 -0.468350 -1.807657
v -0.035939 -0.085281 -1.807657
v -0.035939 -0.468350 -1.650137
v -0.035939 -0.085281 -1.650137
vn -0.0000 -0.9239 -0.3827
vn 1.0000 -0.0000 -0.0000
vn -0.0000 0.9239 0.3827
vn -1.0000 -0.0000 -0.0000
vn -0.0000 0.3827 -0.9239
vn -0.0000 -0.3827 0.9239
vn -0.0000 -1.0000 -0.0000
vn -0.0000 1.0000 -0.0000
vn -0.0000 -0.0000 -1.0000
vn -0.0000 -0.0000 1.0000
vn -0.0000 -0.7071 -0.7071
vn -0.0000 0.7071 0.7071
vn -0.0000 0.7071 -0.7071
vn -0.0000 -0.7071 0.7071
vn -0.0000 -0.9239 0.3827
vn -0.0000 0.9239 -0.3827
vn -0.0000 -0.3827 -0.9239
vn -0.0000 0.3827 0.9239
vt 0.054688 0.964844
vt 0.062500 0.964844
vt 0.062500 0.968750
vt 0.054688 0.968750
vt 0.015625 0.933594
vt 0.019531 0.933594
vt 0.019531 0.937500
vt 0.015625 0.937500
vt 0.054688 0.957031
vt 0.062500 0.957031
vt 0.062500 0.960938
vt 0.054688 0.960938
vt 0.023438 0.933594
vt 0.027344 0.933594
vt 0.027344 0.937500
vt 0.023438 0.937500
vt 0.062500 0.953125
vt 0.054688 0.953125
vt 0.054688 0.949219
vt 0.062500 0.949219
vt 0.062500 0.941406
vt 0.054688 0.941406
vt 0.054688 0.945312
vt 0.062500 0.945312
vt 0.234375 0.355469
vt 0.242188 0.355469
vt 0.242188 0.703125
vt 0.234375 0.703125
vt 0.000000 0.652344
vt 0.015625 0.652344
vt 0.015625 1.000000
vt 0.000000 1.000000
vt 0.250000 0.355469
vt 0.250000 0.703125
vt 0.195312 0.355469
vt 0.210938 0.355469
vt 0.210938 0.703125
vt 0.195312 0.703125
vt 0.203125 0.796875
vt 0.195312 0.796875
vt 0.195312 0.781250
vt 0.203125 0.781250
vt 0.210938 0.726562
vt 0.203125 0.726562
vt 0.203125 0.742188
vt 0.210938 0.742188
vt 0.312500 0.644531
vt 0.320312 0.644531
vt 0.320312 0.671875
vt 0.312500 0.671875
vt 0.156250 0.972656
vt 0.222656 0.972656
vt 0.222656 1.000000
vt 0.156250 1.000000
vt 0.187500 0.628906
vt 0.195312 0.628906
vt 0.195312 0.656250
vt 0.187500 0.656250
vt 0.171875 0.910156
vt 0.238281 0.910156
vt 0.238281 0.937500
vt 0.171875 0.937500
vt 0.265625 1.000000
vt 0.257812 1.000000
vt 0.257812 0.933594
vt 0.265625 0.933594
vt 0.296875 0.636719
vt 0.289062 0.636719
vt 0.289062 0.703125
vt 0.296875 0.703125
vt 0.062500 0.656250
vt 0.074219 0.656250
vt 0.074219 0.687500
vt 0.062500 0.687500
vt 0.234375 0.781250
vt 0.234375 0.812500
vt 0.203125 0.812500
vt 0.312500 0.828125
vt 0.324219 0.828125
vt 0.324219 0.859375
vt 0.312500 0.859375
vt 0.304688 0.875000
vt 0.335938 0.875000
vt 0.335938 0.906250
vt 0.304688 0.906250
vt 0.312500 0.796875
vt 0.324219 0.796875
vt 0.324219 0.765625
vt 0.312500 0.765625
vt 0.304688 0.765625
vt 0.304688 0.828125
vt 0.125000 0.937500
vt 0.156250 0.937500
vt 0.125000 1.000000
vt 0.179688 0.632812
vt 0.187500 0.632812
vt 0.187500 0.695312
vt 0.179688 0.695312
vt 0.171875 0.796875
vt 0.203125 0.859375
vt 0.171875 0.859375
vt 0.218750 0.757812
vt 0.210938 0.757812
vt 0.218750 0.726562
vt 0.265625 0.750000
vt 0.257812 0.750000
vt 0.257812 0.781250
vt 0.265625 0.781250
vt 0.320312 0.679688
vt 0.328125 0.679688
vt 0.328125 0.710938
vt 0.320312 0.710938
vt 0.117188 0.664062
vt 0.148438 0.664062
vt 0.148438 0.695312
vt 0.117188 0.695312
vt 0.320312 0.648438
vt 0.328125 0.648438
vt 0.179688 0.664062
vt 0.335938 0.859375
vt 0.328125 0.859375
vt 0.328125 0.828125
vt 0.335938 0.828125
vt 0.335938 0.796875
vt 0.328125 0.796875
vt 0.250000 0.980469
vt 0.257812 0.980469
vt 0.250000 1.000000
vt 0.093750 0.769531
vt 0.125000 0.769531
vt 0.125000 0.789062
vt 0.093750 0.789062
vt 0.023438 0.628906
vt 0.031250 0.628906
vt 0.031250 0.648438
vt 0.023438 0.648438
vt 0.203125 0.761719
vt 0.234375 0.761719
vt 0.328125 0.765625
vt 0.335938 0.765625
vt 0.335938 0.734375
vt 0.328125 0.734375
vt 0.343750 0.691406
vt 0.351562 0.691406
vt 0.351562 0.718750
vt 0.343750 0.718750
vt 0.203125 0.847656
vt 0.242188 0.847656
vt 0.242188 0.875000
vt 0.203125 0.875000
vt 0.343750 0.660156
vt 0.351562 0.660156
vt 0.351562 0.687500
vt 0.343750 0.687500
vt 0.304688 0.972656
vt 0.343750 0.972656
vt 0.343750 1.000000
vt 0.304688 1.000000
vt 0.296875 0.906250
vt 0.289062 0.906250
vt 0.289062 0.867188
vt 0.296875 0.867188
vt 0.195312 0.695312
vt 0.296875 0.886719
vt 0.304688 0.886719
vt 0.304688 0.898438
vt 0.296875 0.898438
vt 0.171875 0.746094
vt 0.210938 0.746094
vt 0.171875 0.757812
vt 0.304688 0.730469
vt 0.312500 0.730469
vt 0.312500 0.742188
vt 0.304688 0.742188
vt 0.304688 0.863281
vt 0.343750 0.863281
vt 0.343750 0.875000
vt 0.117188 0.687500
vt 0.109375 0.687500
vt 0.109375 0.648438
vt 0.117188 0.648438
vt 0.312500 0.710938
vt 0.078125 0.636719
vt 0.085938 0.636719
vt 0.085938 0.648438
vt 0.078125 0.648438
vt 0.359375 0.980469
vt 0.363281 0.980469
vt 0.363281 0.992188
vt 0.359375 0.992188
vt 0.093750 0.636719
vt 0.093750 0.648438
vt 0.359375 0.964844
vt 0.363281 0.964844
vt 0.363281 0.976562
vt 0.359375 0.976562
vt 0.039062 0.640625
vt 0.031250 0.640625
vt 0.031250 0.636719
vt 0.039062 0.636719
vt 0.046875 0.636719
vt 0.046875 0.640625
vt 0.351562 0.894531
vt 0.359375 0.894531
vt 0.359375 0.906250
vt 0.351562 0.906250
vt 0.109375 0.636719
vt 0.117188 0.636719
vt 0.351562 0.847656
vt 0.359375 0.847656
vt 0.359375 0.859375
vt 0.351562 0.859375
vt 0.351562 0.832031
vt 0.359375 0.832031
vt 0.359375 0.843750
vt 0.351562 0.843750
vt 0.203125 0.906250
vt 0.195312 0.906250
vt 0.195312 0.898438
vt 0.203125 0.898438
vt 0.265625 0.921875
vt 0.257812 0.921875
vt 0.257812 0.929688
vt 0.265625 0.929688
vt 0.296875 0.992188
vt 0.304688 0.992188
vt 0.296875 1.000000
vt 0.296875 0.945312
vt 0.304688 0.945312
vt 0.304688 0.953125
vt 0.296875 0.953125
vt 0.296875 0.812500
vt 0.304688 0.812500
vt 0.304688 0.820312
vt 0.296875 0.820312
vt 0.343750 0.882812
vt 0.335938 0.882812
vt 0.343750 0.742188
vt 0.335938 0.742188
vt 0.343750 0.734375
vt 0.359375 0.703125
vt 0.351562 0.703125
vt 0.351562 0.710938
vt 0.359375 0.710938
vt 0.343750 0.628906
vt 0.351562 0.628906
vt 0.351562 0.656250
vt 0.343750 0.656250
vt 0.312500 0.714844
vt 0.324219 0.714844
vt 0.324219 0.742188
vt 0.000000 0.621094
vt 0.007812 0.621094
vt 0.007812 0.648438
vt 0.000000 0.648438
vt 0.273438 0.660156
vt 0.285156 0.660156
vt 0.285156 0.687500
vt 0.273438 0.687500
vt 0.359375 0.828125
vt 0.351562 0.828125
vt 0.351562 0.816406
vt 0.359375 0.816406
vt 0.359375 0.800781
vt 0.351562 0.800781
vt 0.351562 0.812500
vt 0.359375 0.812500
vt 0.351562 0.695312
vt 0.359375 0.695312
vt 0.359375 0.687500
vt 0.351562 0.679688
vt 0.359375 0.679688
vt 0.320312 0.640625
vt 0.328125 0.640625
vt 0.351562 0.671875
vt 0.359375 0.671875
vt 0.359375 0.664062
vt 0.351562 0.664062
vt 0.359375 0.656250
vt 0.359375 0.953125
vt 0.363281 0.953125
vt 0.363281 0.960938
vt 0.359375 0.960938
vt 0.351562 0.648438
vt 0.359375 0.648438
vt 0.359375 0.945312
vt 0.363281 0.945312
vt 0.367188 0.945312
vt 0.359375 0.941406
vt 0.367188 0.941406
vt 0.367188 0.933594
vt 0.359375 0.933594
vt 0.359375 0.937500
vt 0.367188 0.937500
vt 0.328125 0.714844
vt 0.339844 0.714844
vt 0.339844 0.734375
vt 0.226562 0.980469
vt 0.246094 0.980469
vt 0.246094 1.000000
vt 0.226562 1.000000
vt 0.328125 0.691406
vt 0.339844 0.691406
vt 0.339844 0.710938
vt 0.226562 0.957031
vt 0.246094 0.957031
vt 0.246094 0.976562
vt 0.226562 0.976562
vt 0.339844 0.687500
vt 0.328125 0.687500
vt 0.328125 0.667969
vt 0.339844 0.667969
vt 0.347656 0.886719
vt 0.335938 0.886719
vt 0.347656 0.906250
vt 0.250000 0.496094
vt 0.261719 0.496094
vt 0.261719 0.703125
vt 0.031250 0.792969
vt 0.050781 0.792969
vt 0.050781 1.000000
vt 0.031250 1.000000
vt 0.296875 0.519531
vt 0.308594 0.519531
vt 0.308594 0.726562
vt 0.296875 0.726562
vt 0.210938 0.496094
vt 0.230469 0.496094
vt 0.230469 0.703125
vt 0.128906 0.664062
vt 0.117188 0.644531
vt 0.128906 0.644531
vt 0.144531 0.644531
vt 0.132812 0.644531
vt 0.132812 0.664062
vt 0.144531 0.664062
vt 0.335938 0.839844
vt 0.347656 0.839844
vt 0.347656 0.859375
vt 0.234375 0.792969
vt 0.253906 0.792969
vt 0.253906 0.812500
vt 0.148438 0.644531
vt 0.160156 0.644531
vt 0.160156 0.664062
vt 0.234375 0.746094
vt 0.253906 0.746094
vt 0.253906 0.765625
vt 0.234375 0.765625
vt 0.175781 0.664062
vt 0.164062 0.664062
vt 0.164062 0.644531
vt 0.175781 0.644531
vt 0.347656 0.816406
vt 0.335938 0.816406
vt 0.335938 0.835938
vt 0.347656 0.835938
vt 0.281250 0.859375
vt 0.292969 0.859375
vt 0.292969 0.867188
vt 0.281250 0.867188
vt 0.171875 0.898438
vt 0.191406 0.898438
vt 0.191406 0.906250
vt 0.171875 0.906250
vt 0.351562 0.882812
vt 0.363281 0.882812
vt 0.363281 0.890625
vt 0.351562 0.890625
vt 0.171875 0.789062
vt 0.191406 0.789062
vt 0.191406 0.796875
vt 0.347656 0.812500
vt 0.335938 0.812500
vt 0.335938 0.792969
vt 0.347656 0.792969
vt 0.347656 0.769531
vt 0.335938 0.769531
vt 0.335938 0.789062
vt 0.347656 0.789062
vt 0.335938 0.746094
vt 0.347656 0.746094
vt 0.347656 0.765625
vt 0.234375 0.722656
vt 0.253906 0.722656
vt 0.253906 0.742188
vt 0.234375 0.742188
vt 0.328125 0.644531
vt 0.339844 0.644531
vt 0.339844 0.664062
vt 0.328125 0.664062
vt 0.304688 0.746094
vt 0.324219 0.746094
vt 0.355469 1.000000
vt 0.343750 0.980469
vt 0.355469 0.980469
vt 0.355469 0.957031
vt 0.343750 0.957031
vt 0.343750 0.976562
vt 0.355469 0.976562
vt 0.351562 0.789062
vt 0.363281 0.789062
vt 0.363281 0.796875
vt 0.351562 0.796875
vt 0.171875 0.781250
vt 0.191406 0.781250
vt 0.351562 0.781250
vt 0.363281 0.781250
vt 0.281250 0.773438
vt 0.300781 0.773438
vt 0.300781 0.781250
vt 0.281250 0.781250
vt 0.355469 0.953125
vt 0.343750 0.953125
vt 0.343750 0.933594
vt 0.355469 0.933594
vt 0.074219 0.636719
vt 0.062500 0.636719
vt 0.351562 0.773438
vt 0.363281 0.773438
vt 0.234375 0.710938
vt 0.253906 0.710938
vt 0.253906 0.718750
vt 0.234375 0.718750
vt 0.351562 0.765625
vt 0.363281 0.765625
vt 0.125000 0.703125
vt 0.144531 0.703125
vt 0.144531 0.710938
vt 0.125000 0.710938
vt 0.355469 0.929688
vt 0.343750 0.929688
vt 0.343750 0.910156
vt 0.355469 0.910156
vt 0.355469 0.863281
vt 0.355469 0.882812
vt 0.351562 0.757812
vt 0.363281 0.757812
vt 0.148438 0.703125
vt 0.167969 0.703125
vt 0.167969 0.710938
vt 0.148438 0.710938
vt 0.351562 0.750000
vt 0.363281 0.750000
vt 0.289062 0.835938
vt 0.308594 0.835938
vt 0.308594 0.843750
vt 0.289062 0.843750
vt 0.355469 0.742188
vt 0.343750 0.722656
vt 0.355469 0.722656
vt 0.285156 0.636719
vt 0.273438 0.636719
vt 0.273438 0.656250
vt 0.285156 0.656250
vt 0.046875 0.531250
vt 0.058594 0.531250
vt 0.058594 0.695312
vt 0.046875 0.695312
vt 0.156250 0.773438
vt 0.164062 0.773438
vt 0.164062 0.937500
vt 0.093750 0.531250
vt 0.105469 0.531250
vt 0.105469 0.695312
vt 0.093750 0.695312
vt 0.265625 0.539062
vt 0.273438 0.539062
vt 0.273438 0.703125
vt 0.265625 0.703125
vt 0.351562 0.742188
vt 0.363281 0.742188
vt 0.363281 0.710938
vt 0.363281 0.718750
vt 0.023438 0.953125
vt 0.015625 0.953125
vt 0.054688 0.984375
vt 0.097656 0.984375
vt 0.097656 1.000000
vt 0.054688 1.000000
vt 0.031250 0.937500
vt 0.031250 0.953125
vt 0.097656 0.968750
vt 0.023438 1.000000
vt 0.015625 0.957031
vt 0.023438 0.957031
vt 0.031250 0.957031
s 1
usemtl m_204a64c4-d5d3-e9c8-35bb-e681f3296c43
f 4/1/1 7/2/1 5/3/1 2/4/1
f 3/5/2 4/6/2 2/7/2 1/8/2
f 8/9/3 3/10/3 1/11/3 6/12/3
f 7/13/4 8/14/4 6/15/4 5/16/4
f 6/17/5 1/18/5 2/19/5 5/20/5
f 7/21/6 4/22/6 3/23/6 8/24/6
f 12/25/7 15/26/7 13/27/7 10/28/7
f 11/29/2 12/30/2 10/31/2 9/32/2
f 16/26/8 11/33/8 9/34/8 14/27/8
f 15/35/4 16/36/4 14/37/4 13/38/4
f 14/39/9 9/40/9 10/41/9 13/42/9
f 15/43/10 12/44/10 11/45/10 16/46/10
f 20/47/7 23/48/7 21/49/7 18/50/7
f 19/51/2 20/52/2 18/53/2 17/54/2
f 24/55/8 19/56/8 17/57/8 22/58/8
f 23/59/4 24/60/4 22/61/4 21/62/4
f 22/63/9 17/64/9 18/65/9 21/66/9
f 23/67/10 20/68/10 19/69/10 24/70/10
f 28/71/11 31/72/11 29/73/11 26/74/11
f 27/42/2 28/75/2 26/76/2 25/77/2
f 32/78/12 27/79/12 25/80/12 30/81/12
f 31/82/4 32/83/4 30/84/4 29/85/4
f 30/79/13 25/78/13 26/86/13 29/87/13
f 31/88/14 28/89/14 27/86/14 32/87/14
f 36/90/7 39/89/7 37/78/7 34/91/7
f 35/92/2 36/93/2 34/54/2 33/94/2
f 40/95/8 35/96/8 33/97/8 38/98/8
f 39/99/4 40/39/4 38/100/4 37/101/4
f 38/102/9 33/103/9 34/43/9 37/104/9
f 39/105/10 36/106/10 35/107/10 40/108/10
f 44/109/15 47/110/15 45/111/15 42/112/15
f 43/113/2 44/114/2 42/115/2 41/116/2
f 48/117/16 43/118/16 41/110/16 46/109/16
f 47/114/4 48/119/4 46/98/4 45/115/4
f 46/120/17 41/121/17 42/122/17 45/123/17
f 47/124/18 44/125/18 43/122/18 48/123/18
f 52/126/14 55/127/14 53/64/14 50/128/14
f 51/129/2 52/130/2 50/131/2 49/132/2
f 56/133/13 51/134/13 49/135/13 54/136/13
f 55/137/4 56/138/4 54/75/4 53/42/4
f 54/124/11 49/125/11 50/139/11 53/140/11
f 55/141/12 52/142/12 51/139/12 56/140/12
f 60/143/15 63/144/15 61/145/15 58/146/15
f 59/147/2 60/148/2 58/149/2 57/150/2
f 64/151/16 59/152/16 57/153/16 62/154/16
f 63/155/4 64/156/4 62/157/4 61/158/4
f 62/159/17 57/160/17 58/161/17 61/162/17
f 63/57/18 60/58/18 59/97/18 64/163/18
f 68/164/7 71/165/7 69/166/7 66/167/7
f 67/168/2 68/169/2 66/103/2 65/170/2
f 72/171/8 67/172/8 65/173/8 70/174/8
f 71/175/4 72/176/4 70/177/4 69/82/4
f 70/178/9 65/179/9 66/180/9 69/181/9
f 71/49/10 68/50/10 67/182/10 72/112/10
f 76/183/1 79/184/1 77/185/1 74/186/1
f 75/187/2 76/188/2 74/189/2 73/190/2
f 80/184/3 75/191/3 73/192/3 78/185/3
f 79/193/4 80/194/4 78/195/4 77/196/4
f 78/197/5 73/198/5 74/199/5 77/200/5
f 79/201/6 76/200/6 75/197/6 80/202/6
f 84/203/11 87/204/11 85/205/11 82/206/11
f 83/207/2 84/208/2 82/181/2 81/180/2
f 88/209/12 83/210/12 81/211/12 86/212/12
f 87/213/4 88/214/4 86/215/4 85/216/4
f 86/217/13 81/218/13 82/219/13 85/220/13
f 87/221/14 84/222/14 83/223/14 88/224/14
f 92/225/11 95/226/11 93/158/11 90/227/11
f 91/228/2 92/229/2 90/230/2 89/231/2
f 96/232/12 91/233/12 89/234/12 94/235/12
f 95/83/4 96/177/4 94/236/4 93/237/4
f 94/238/13 89/239/13 90/141/13 93/240/13
f 95/241/14 92/242/14 91/243/14 96/244/14
f 100/245/7 103/246/7 101/247/7 98/248/7
f 99/249/2 100/250/2 98/251/2 97/173/2
f 104/252/8 99/253/8 97/254/8 102/255/8
f 103/256/4 104/257/4 102/258/4 101/259/4
f 102/260/9 97/261/9 98/262/9 101/263/9
f 103/264/10 100/265/10 99/266/10 104/267/10
f 108/268/11 111/269/11 109/241/11 106/242/11
f 107/153/2 108/270/2 106/269/2 105/268/2
f 112/271/12 107/272/12 105/270/12 110/153/12
f 111/273/4 112/274/4 110/118/4 109/117/4
f 110/272/13 105/271/13 106/275/13 109/276/13
f 111/277/14 108/278/14 107/275/14 112/276/14
f 116/247/15 119/279/15 117/277/15 114/278/15
f 115/280/2 116/281/2 114/282/2 113/283/2
f 120/284/16 115/285/16 113/279/16 118/247/16
f 119/286/4 120/287/4 118/281/4 117/280/4
f 118/288/17 113/286/17 114/289/17 117/290/17
f 119/291/18 116/292/18 115/293/18 120/294/18
f 124/295/7 127/296/7 125/297/7 122/142/7
f 123/298/2 124/299/2 122/300/2 121/301/2
f 128/302/8 123/303/8 121/304/8 126/111/8
f 127/305/4 128/306/4 126/307/4 125/308/4
f 126/309/9 121/310/9 122/311/9 125/312/9
f 127/313/10 124/314/10 123/84/10 128/315/10
f 132/316/7 135/317/7 133/318/7 130/34/7
f 131/319/2 132/320/2 130/321/2 129/322/2
f 136/323/8 131/324/8 129/325/8 134/326/8
f 135/327/4 136/328/4 134/329/4 133/37/4
f 134/330/9 129/113/9 130/331/9 133/332/9
f 135/333/10 132/334/10 131/335/10 136/336/10
f 140/337/7 143/338/7 141/339/7 138/120/7
f 139/340/2 140/341/2 138/342/2 137/76/2
f 144/343/8 139/344/8 137/345/8 142/114/8
f 143/346/4 144/347/4 142/348/4 141/349/4
f 142/350/9 137/351/9 138/352/9 141/353/9
f 143/354/10 140/355/10 139/356/10 144/357/10
f 148/358/7 151/359/7 149/360/7 146/361/7
f 147/362/2 148/363/2 146/364/2 145/365/2
f 152/366/8 147/367/8 145/368/8 150/369/8
f 151/370/4 152/371/4 150/372/4 149/99/4
f 150/373/9 145/374/9 146/375/9 149/376/9
f 151/377/10 148/378/10 147/379/10 152/380/10
f 156/381/7 159/382/7 157/383/7 154/140/7
f 155/384/2 156/385/2 154/386/2 153/387/2
f 160/388/8 155/389/8 153/390/8 158/391/8
f 159/392/4 160/393/4 158/88/4 157/90/4
f 158/394/9 153/157/9 154/395/9 157/396/9
f 159/397/10 156/398/10 155/399/10 160/400/10
f 164/401/7 167/402/7 165/403/7 162/404/7
f 163/405/2 164/406/2 162/371/2 161/370/2
f 168/407/8 163/408/8 161/402/8 166/401/8
f 167/409/4 168/410/4 166/411/4 165/412/4
f 166/413/9 161/414/9 162/415/9 165/416/9
f 167/417/10 164/418/10 163/71/10 168/72/10
f 172/419/7 175/420/7 173/408/7 170/407/7
f 171/421/2 172/422/2 170/423/2 169/424/2
f 176/425/8 171/426/8 169/420/8 174/419/8
f 175/427/4 176/428/4 174/429/4 173/430/4
f 174/431/9 169/432/9 170/433/9 173/434/9
f 175/435/10 172/176/10 171/236/10 176/436/10
f 180/437/7 183/438/7 181/426/7 178/425/7
f 179/439/2 180/440/2 178/441/2 177/442/2
f 184/443/8 179/444/8 177/438/8 182/437/8
f 183/445/4 184/446/4 182/447/4 181/448/4
f 182/449/9 177/238/9 178/450/9 181/451/9
f 183/452/10 180/453/10 179/454/10 184/455/10
f 188/456/7 191/457/7 189/458/7 186/459/7
f 187/460/2 188/461/2 186/462/2 185/93/2
f 192/463/8 187/464/8 185/465/8 190/466/8
f 191/467/4 192/468/4 190/469/4 189/470/4
f 190/444/9 185/443/9 186/471/9 189/472/9
f 191/473/10 188/243/10 187/145/10 192/474/10
f 196/8/7 199/16/7 197/475/7 194/476/7
f 195/477/2 196/478/2 194/479/2 193/480/2
f 200/16/8 195/481/8 193/482/8 198/475/8
f 199/4/4 200/483/4 198/478/4 197/477/4
f 198/484/9 193/31/9 194/485/9 197/486/9
f 199/487/10 196/486/10 195/484/10 200/322/10
