# Blender 4.3.0
# www.blender.org
mtllib uchigatana_sheath.mtl
o cube.025
v 0.385725 -1.121897 0.515724
v 0.384818 -1.145959 0.479797
v 0.387036 -1.045419 0.464472
v 0.386129 -1.069481 0.428544
v 0.446798 -1.147416 0.479208
v 0.447705 -1.123354 0.515136
v 0.448110 -1.070938 0.427956
v 0.449016 -1.046877 0.463883
v 0.419090 0.253613 0.649558
v 0.418346 0.275741 0.516386
v 0.423915 0.445921 0.681485
v 0.423171 0.468049 0.548313
v 0.480826 0.274272 0.515792
v 0.481570 0.252144 0.648965
v 0.485651 0.466580 0.547719
v 0.486395 0.444452 0.680892
v 0.411522 -0.025107 0.542723
v 0.411108 -0.016697 0.478271
v 0.418760 0.267331 0.580838
v 0.418346 0.275741 0.516386
v 0.473588 -0.018166 0.477678
v 0.474002 -0.026576 0.542130
v 0.480826 0.274272 0.515792
v 0.481240 0.265862 0.580245
v 0.404409 -0.316445 0.515095
v 0.403939 -0.310288 0.450389
v 0.411577 -0.022853 0.542977
v 0.411108 -0.016697 0.478271
v 0.466419 -0.311758 0.449795
v 0.466889 -0.317914 0.514501
v 0.473588 -0.018166 0.477678
v 0.474057 -0.024322 0.542384
v 0.396412 -0.648489 0.495264
v 0.395888 -0.644594 0.430383
v 0.404464 -0.314184 0.515270
v 0.403939 -0.310288 0.450389
v 0.458368 -0.646063 0.429790
v 0.458892 -0.649958 0.494671
v 0.466419 -0.311758 0.449795
v 0.466943 -0.315653 0.514676
v 0.392075 -0.831113 0.490764
v 0.391497 -0.829484 0.425787
v 0.396467 -0.646223 0.495360
v 0.395888 -0.644594 0.430383
v 0.453977 -0.830954 0.425193
v 0.454555 -0.832583 0.490170
v 0.458368 -0.646063 0.429790
v 0.458947 -0.647692 0.494767
v 0.387191 -1.068079 0.563187
v 0.385878 -1.069407 0.428200
v 0.392810 -0.828157 0.560774
v 0.391497 -0.829484 0.425787
v 0.448358 -1.070876 0.427607
v 0.449671 -1.069549 0.562594
v 0.453977 -0.830954 0.425193
v 0.455289 -0.829627 0.560180
v 0.412755 0.034848 0.550453
v 0.412816 0.058318 0.498784
v 0.418846 0.253743 0.649891
v 0.418908 0.277214 0.598222
v 0.475796 0.056837 0.498186
v 0.475735 0.033367 0.549855
v 0.481887 0.275733 0.597624
v 0.481826 0.252262 0.649293
v 0.385376 -1.145554 0.563966
v 0.384550 -1.146390 0.478975
v 0.387191 -1.068079 0.563187
v 0.386364 -1.068915 0.478195
v 0.447030 -1.147859 0.478381
v 0.447856 -1.147023 0.563373
v 0.448844 -1.070384 0.477602
v 0.449671 -1.069549 0.562594
v 0.412192 -0.035129 0.611754
v 0.411749 -0.026137 0.542840
v 0.419449 0.258052 0.649965
v 0.419006 0.267045 0.581051
v 0.473729 -0.027594 0.542251
v 0.474172 -0.036587 0.611166
v 0.480986 0.265587 0.580463
v 0.481429 0.256594 0.649377
v 0.405083 -0.326307 0.584179
v 0.404581 -0.319724 0.514993
v 0.412270 -0.031968 0.612132
v 0.411767 -0.025385 0.542946
v 0.466561 -0.321181 0.514404
v 0.467063 -0.327764 0.583590
v 0.473748 -0.026843 0.542358
v 0.474250 -0.033426 0.611544
v 0.397091 -0.658188 0.564396
v 0.396530 -0.654023 0.495023
v 0.405160 -0.323134 0.584446
v 0.404599 -0.318969 0.515073
v 0.458510 -0.655481 0.494434
v 0.459071 -0.659645 0.563807
v 0.466579 -0.320427 0.514485
v 0.467140 -0.324592 0.583857
v 0.392788 -0.839399 0.559968
v 0.392169 -0.837657 0.490493
v 0.397167 -0.655008 0.564552
v 0.396548 -0.653266 0.495077
v 0.454149 -0.839115 0.489904
v 0.454768 -0.840857 0.559379
v 0.458528 -0.654724 0.494488
v 0.459147 -0.656466 0.563964
v 0.418917 0.446039 0.681532
v 0.417925 0.475543 0.503969
v 0.420031 0.490418 0.688900
v 0.419039 0.519922 0.511337
v 0.490402 0.473839 0.503281
v 0.491394 0.444335 0.680844
v 0.491515 0.518217 0.510649
v 0.492507 0.488713 0.688212
v 0.426361 0.380184 0.575106
v 0.425682 0.368871 0.531557
v 0.428601 0.486620 0.547424
v 0.427922 0.475308 0.503874
v 0.478165 0.367637 0.531058
v 0.478844 0.378949 0.574608
v 0.480405 0.474074 0.503376
v 0.481084 0.485386 0.546926
v 0.418457 0.078104 0.490711
v 0.418633 0.102160 0.449753
v 0.421215 0.172919 0.546412
v 0.421392 0.196975 0.505454
v 0.471117 0.100926 0.449255
v 0.470940 0.076870 0.490213
v 0.473875 0.195741 0.504956
v 0.473698 0.171685 0.545913
v 0.416614 0.251217 0.552714
v 0.416813 0.275279 0.514098
v 0.422370 0.446774 0.674595
v 0.422569 0.470835 0.635979
v 0.482292 0.273740 0.513476
v 0.482093 0.249678 0.552093
v 0.488048 0.469296 0.635357
v 0.487849 0.445234 0.673973
v 0.409992 -0.027149 0.518302
v 0.409705 -0.021326 0.473682
v 0.417230 0.265289 0.556417
v 0.416943 0.271111 0.511796
v 0.474684 -0.022854 0.473065
v 0.474971 -0.028677 0.517685
v 0.481923 0.269583 0.511179
v 0.482209 0.263761 0.555800
v 0.402861 -0.319181 0.490595
v 0.402536 -0.314918 0.445799
v 0.410030 -0.025589 0.518478
v 0.409705 -0.021327 0.473682
v 0.467515 -0.316446 0.445182
v 0.467841 -0.320709 0.489978
v 0.474684 -0.022854 0.473065
v 0.475009 -0.027117 0.517861
v 0.394968 -0.646931 0.471010
v 0.394605 -0.644234 0.426092
v 0.402899 -0.317615 0.490717
v 0.402536 -0.314918 0.445799
v 0.459585 -0.645762 0.425475
v 0.459948 -0.648459 0.470393
v 0.467515 -0.316446 0.445182
v 0.467878 -0.319143 0.490100
v 0.390733 -0.825255 0.466604
v 0.390333 -0.824128 0.421620
v 0.395006 -0.645362 0.471076
v 0.394605 -0.644234 0.426092
v 0.455312 -0.825656 0.421003
v 0.455712 -0.826783 0.465987
v 0.459585 -0.645762 0.425475
v 0.459985 -0.646890 0.470459
v 0.384781 -1.068847 0.469334
v 0.384339 -1.069294 0.423838
v 0.390529 -0.823427 0.466865
v 0.390086 -0.823874 0.421370
v 0.449818 -1.070834 0.423217
v 0.450260 -1.070387 0.468712
v 0.455565 -0.825414 0.420748
v 0.456008 -0.824967 0.466244
v 0.384342 -1.148549 0.567853
v 0.383472 -1.149429 0.478362
v 0.385384 -1.104063 0.567406
v 0.384514 -1.104943 0.477914
v 0.447951 -1.150945 0.477749
v 0.448822 -1.150065 0.567241
v 0.448993 -1.106459 0.477302
v 0.449863 -1.105580 0.566793
v 0.384026 -1.128117 0.510306
v 0.383214 -1.149675 0.478116
v 0.385409 -1.047490 0.456273
v 0.384597 -1.069048 0.424083
v 0.448193 -1.151203 0.477500
v 0.449006 -1.129645 0.509689
v 0.449576 -1.070576 0.423467
v 0.450388 -1.049018 0.455656
v 0.417090 0.211909 0.568556
v 0.417104 0.217285 0.556720
v 0.418908 0.277214 0.598222
v 0.418922 0.282590 0.586386
v 0.480084 0.215804 0.556122
v 0.480070 0.210428 0.567958
v 0.481902 0.281109 0.585788
v 0.481887 0.275733 0.597624
v 0.416593 0.259535 0.529913
v 0.416688 0.271037 0.511454
v 0.416730 0.264201 0.532822
v 0.416826 0.275704 0.514362
v 0.482167 0.269498 0.510832
v 0.482072 0.257995 0.529292
v 0.482305 0.274164 0.513740
v 0.482209 0.262662 0.532200
vn -0.0210 -0.5563 -0.8307
vn -0.9997 0.0235 0.0095
vn 0.0210 0.5563 0.8307
vn 0.9997 -0.0235 -0.0095
vn -0.0142 -0.8306 0.5567
vn 0.0142 0.8306 -0.5566
vn -0.0055 0.1639 -0.9865
vn 0.0055 -0.1639 0.9865
vn -0.0247 -0.9862 -0.1637
vn 0.0247 0.9862 0.1637
vn -0.0064 0.1294 -0.9916
vn 0.0064 -0.1294 0.9916
vn -0.0245 -0.9913 -0.1292
vn 0.0245 0.9913 0.1292
vn -0.0072 0.0947 -0.9955
vn 0.0072 -0.0947 0.9955
vn -0.0243 -0.9952 -0.0945
vn 0.0243 0.9952 0.0945
vn -0.0081 0.0599 -0.9982
vn 0.0081 -0.0599 0.9982
vn -0.0240 -0.9979 -0.0597
vn 0.0240 0.9979 0.0597
vn -0.0089 0.0251 -0.9996
vn 0.0089 -0.0251 0.9996
vn -0.0237 -0.9994 -0.0248
vn 0.0237 0.9994 0.0248
vn -0.0097 -0.0098 -0.9999
vn 0.0097 0.0098 0.9999
vn -0.0234 -0.9997 0.0101
vn 0.0234 0.9997 -0.0101
vn 0.0011 0.4136 -0.9105
vn -0.0011 -0.4136 0.9105
vn -0.0253 -0.9102 -0.4135
vn 0.0253 0.9102 0.4135
vn -0.0151 -0.2514 -0.9678
vn 0.0151 0.2514 0.9678
vn -0.0204 -0.9676 0.2517
vn 0.0204 0.9676 -0.2517
vn 0.0037 0.5064 -0.8623
vn -0.0037 -0.5064 0.8623
vn -0.0251 -0.8620 -0.5064
vn 0.0251 0.8620 0.5064
vn 0.0044 0.5288 -0.8487
vn -0.0044 -0.5288 0.8487
vn -0.0250 -0.8484 -0.5288
vn 0.0250 0.8484 0.5288
vn 0.0142 0.8306 -0.5567
vt 0.390625 0.765625
vt 0.414062 0.765625
vt 0.414062 0.796875
vt 0.390625 0.796875
vt 0.359375 0.906250
vt 0.375000 0.906250
vt 0.375000 0.937500
vt 0.359375 0.937500
vt 0.390625 0.734375
vt 0.414062 0.734375
vt 0.359375 0.687500
vt 0.375000 0.687500
vt 0.375000 0.718750
vt 0.359375 0.718750
vt 0.179688 0.546875
vt 0.156250 0.546875
vt 0.156250 0.531250
vt 0.179688 0.531250
vt 0.476562 0.828125
vt 0.453125 0.828125
vt 0.453125 0.843750
vt 0.476562 0.843750
vt 0.000000 0.609375
vt 0.023438 0.609375
vt 0.023438 0.671875
vt 0.000000 0.671875
vt 0.000000 0.937500
vt 0.039062 0.937500
vt 0.039062 1.000000
vt 0.000000 1.000000
vt 0.031250 0.609375
vt 0.054688 0.609375
vt 0.054688 0.671875
vt 0.031250 0.671875
vt 0.046875 0.937500
vt 0.085938 0.937500
vt 0.085938 1.000000
vt 0.046875 1.000000
vt 0.085938 0.609375
vt 0.062500 0.609375
vt 0.062500 0.570312
vt 0.085938 0.570312
vt 0.117188 0.570312
vt 0.093750 0.570312
vt 0.093750 0.609375
vt 0.117188 0.609375
vt 0.187500 0.796875
vt 0.210938 0.796875
vt 0.210938 0.890625
vt 0.187500 0.890625
vt 0.187500 0.703125
vt 0.210938 0.703125
vt 0.218750 0.906250
vt 0.242188 0.906250
vt 0.242188 1.000000
vt 0.218750 1.000000
vt 0.093750 0.687500
vt 0.117188 0.687500
vt 0.117188 0.781250
vt 0.093750 0.781250
vt 0.429688 0.671875
vt 0.406250 0.671875
vt 0.406250 0.648438
vt 0.429688 0.648438
vt 0.429688 0.617188
vt 0.406250 0.617188
vt 0.406250 0.640625
vt 0.429688 0.640625
vt 0.218750 0.812500
vt 0.242188 0.812500
vt 0.125000 0.687500
vt 0.148438 0.687500
vt 0.148438 0.781250
vt 0.125000 0.781250
vt 0.156250 0.687500
vt 0.179688 0.687500
vt 0.179688 0.781250
vt 0.156250 0.781250
vt 0.218750 0.718750
vt 0.242188 0.718750
vt 0.398438 0.593750
vt 0.375000 0.593750
vt 0.375000 0.570312
vt 0.398438 0.570312
vt 0.429688 0.585938
vt 0.406250 0.585938
vt 0.406250 0.609375
vt 0.429688 0.609375
vt 0.093750 0.898438
vt 0.117188 0.898438
vt 0.117188 1.000000
vt 0.093750 1.000000
vt 0.093750 0.789062
vt 0.117188 0.789062
vt 0.117188 0.890625
vt 0.093750 0.890625
vt 0.000000 0.773438
vt 0.023438 0.773438
vt 0.023438 0.875000
vt 0.000000 0.875000
vt 0.125000 0.898438
vt 0.148438 0.898438
vt 0.148438 1.000000
vt 0.125000 1.000000
vt 0.445312 0.875000
vt 0.421875 0.875000
vt 0.421875 0.851562
vt 0.445312 0.851562
vt 0.445312 0.773438
vt 0.421875 0.773438
vt 0.421875 0.796875
vt 0.445312 0.796875
vt 0.359375 0.945312
vt 0.382812 0.945312
vt 0.382812 1.000000
vt 0.359375 1.000000
vt 0.359375 0.789062
vt 0.382812 0.789062
vt 0.382812 0.843750
vt 0.359375 0.843750
vt 0.359375 0.726562
vt 0.382812 0.726562
vt 0.382812 0.781250
vt 0.359375 0.781250
vt 0.375000 0.882812
vt 0.398438 0.882812
vt 0.398438 0.937500
vt 0.445312 0.765625
vt 0.421875 0.765625
vt 0.421875 0.742188
vt 0.445312 0.742188
vt 0.429688 0.554688
vt 0.406250 0.554688
vt 0.406250 0.578125
vt 0.429688 0.578125
vt 0.085938 0.671875
vt 0.062500 0.671875
vt 0.039062 0.875000
vt 0.328125 0.781250
vt 0.351562 0.781250
vt 0.351562 0.843750
vt 0.328125 0.843750
vt 0.046875 0.875000
vt 0.085938 0.875000
vt 0.148438 0.609375
vt 0.125000 0.609375
vt 0.125000 0.570312
vt 0.148438 0.570312
vt 0.414062 0.835938
vt 0.390625 0.835938
vt 0.390625 0.875000
vt 0.414062 0.875000
vt 0.156250 0.453125
vt 0.179688 0.453125
vt 0.218750 0.453125
vt 0.234375 0.453125
vt 0.234375 0.531250
vt 0.218750 0.531250
vt 0.187500 0.453125
vt 0.210938 0.453125
vt 0.210938 0.531250
vt 0.187500 0.531250
vt 0.250000 0.453125
vt 0.250000 0.531250
vt 0.492188 0.859375
vt 0.468750 0.859375
vt 0.468750 0.843750
vt 0.492188 0.843750
vt 0.273438 0.515625
vt 0.250000 0.515625
vt 0.273438 0.531250
vt 0.062500 0.539062
vt 0.085938 0.539062
vt 0.085938 0.562500
vt 0.062500 0.562500
vt 0.437500 0.914062
vt 0.460938 0.914062
vt 0.460938 0.937500
vt 0.437500 0.937500
vt 0.093750 0.539062
vt 0.117188 0.539062
vt 0.117188 0.562500
vt 0.093750 0.562500
vt 0.437500 0.882812
vt 0.460938 0.882812
vt 0.460938 0.906250
vt 0.437500 0.906250
vt 0.148438 0.562500
vt 0.125000 0.562500
vt 0.125000 0.539062
vt 0.148438 0.539062
vt 0.210938 0.539062
vt 0.187500 0.539062
vt 0.187500 0.562500
vt 0.210938 0.562500
vt 0.023438 0.765625
vt 0.000000 0.765625
vt 0.054688 0.765625
vt 0.031250 0.765625
vt 0.085938 0.765625
vt 0.062500 0.765625
vt 0.250000 0.906250
vt 0.273438 0.906250
vt 0.273438 1.000000
vt 0.250000 1.000000
vt 0.242188 0.562500
vt 0.218750 0.562500
vt 0.218750 0.539062
vt 0.242188 0.539062
vt 0.273438 0.539062
vt 0.250000 0.539062
vt 0.250000 0.562500
vt 0.273438 0.562500
vt 0.250000 0.812500
vt 0.273438 0.812500
vt 0.250000 0.718750
vt 0.273438 0.718750
vt 0.281250 0.906250
vt 0.304688 0.906250
vt 0.304688 1.000000
vt 0.281250 1.000000
vt 0.281250 0.812500
vt 0.304688 0.812500
vt 0.460938 0.734375
vt 0.437500 0.734375
vt 0.437500 0.710938
vt 0.460938 0.710938
vt 0.304688 0.539062
vt 0.281250 0.539062
vt 0.281250 0.562500
vt 0.304688 0.562500
vt 0.031250 0.773438
vt 0.054688 0.773438
vt 0.054688 0.875000
vt 0.031250 0.875000
vt 0.062500 0.773438
vt 0.085938 0.773438
vt 0.062500 0.875000
vt 0.125000 0.789062
vt 0.148438 0.789062
vt 0.148438 0.890625
vt 0.125000 0.890625
vt 0.156250 0.898438
vt 0.179688 0.898438
vt 0.179688 1.000000
vt 0.156250 1.000000
vt 0.460938 0.703125
vt 0.437500 0.703125
vt 0.437500 0.679688
vt 0.460938 0.679688
vt 0.351562 0.539062
vt 0.328125 0.539062
vt 0.328125 0.562500
vt 0.351562 0.562500
vt 0.187500 0.570312
vt 0.210938 0.570312
vt 0.210938 0.625000
vt 0.187500 0.625000
vt 0.218750 0.570312
vt 0.242188 0.570312
vt 0.242188 0.625000
vt 0.218750 0.625000
vt 0.250000 0.570312
vt 0.273438 0.570312
vt 0.273438 0.625000
vt 0.250000 0.625000
vt 0.281250 0.570312
vt 0.304688 0.570312
vt 0.304688 0.625000
vt 0.281250 0.625000
vt 0.460938 0.671875
vt 0.437500 0.671875
vt 0.437500 0.648438
vt 0.460938 0.648438
vt 0.382812 0.539062
vt 0.359375 0.539062
vt 0.359375 0.562500
vt 0.382812 0.562500
vt 0.453125 0.812500
vt 0.476562 0.812500
vt 0.390625 0.812500
vt 0.445312 0.812500
vt 0.445312 0.828125
vt 0.390625 0.828125
vt 0.453125 0.796875
vt 0.476562 0.796875
vt 0.398438 0.718750
vt 0.375000 0.664062
vt 0.398438 0.664062
vt 0.367188 0.570312
vt 0.343750 0.570312
vt 0.343750 0.625000
vt 0.367188 0.625000
vt 0.406250 0.968750
vt 0.429688 0.968750
vt 0.429688 1.000000
vt 0.406250 1.000000
vt 0.375000 0.843750
vt 0.390625 0.843750
vt 0.375000 0.875000
vt 0.406250 0.937500
vt 0.429688 0.937500
vt 0.343750 0.562500
vt 0.343750 0.593750
vt 0.328125 0.593750
vt 0.453125 0.781250
vt 0.476562 0.781250
vt 0.476562 0.765625
vt 0.453125 0.765625
vt 0.437500 0.609375
vt 0.453125 0.609375
vt 0.453125 0.640625
vt 0.437500 0.640625
vt 0.390625 0.531250
vt 0.406250 0.531250
vt 0.406250 0.562500
vt 0.390625 0.562500
vt 0.437500 0.578125
vt 0.453125 0.578125
vt 0.437500 0.546875
vt 0.453125 0.546875
vt 0.406250 0.734375
vt 0.390625 0.718750
vt 0.406250 0.718750
vt 0.328125 0.531250
vt 0.312500 0.531250
vt 0.312500 0.546875
vt 0.328125 0.546875
vt 0.125000 0.617188
vt 0.148438 0.617188
vt 0.312500 0.554688
vt 0.328125 0.554688
vt 0.328125 0.625000
vt 0.312500 0.625000
vt 0.156250 0.617188
vt 0.179688 0.617188
vt 0.031250 0.539062
vt 0.046875 0.539062
vt 0.046875 0.609375
vt 0.453125 0.750000
vt 0.476562 0.750000
vt 0.476562 0.734375
vt 0.453125 0.734375
vt 0.281250 0.718750
vt 0.304688 0.718750
vt 0.328125 0.687500
vt 0.343750 0.687500
vt 0.343750 0.781250
vt 0.476562 0.640625
vt 0.453125 0.625000
vt 0.476562 0.625000
vt 0.476562 0.609375
vt 0.343750 0.906250
vt 0.343750 1.000000
vt 0.453125 0.593750
vt 0.476562 0.593750
vt 0.429688 0.531250
vt 0.406250 0.546875
vt 0.429688 0.546875
vt 0.156250 0.789062
vt 0.179688 0.789062
vt 0.179688 0.890625
vt 0.156250 0.890625
vt 0.312500 0.742188
vt 0.328125 0.742188
vt 0.312500 0.843750
vt 0.187500 0.898438
vt 0.210938 0.898438
vt 0.210938 1.000000
vt 0.187500 1.000000
vt 0.312500 0.632812
vt 0.328125 0.632812
vt 0.328125 0.734375
vt 0.312500 0.734375
vt 0.476562 0.578125
vt 0.476562 0.562500
vt 0.453125 0.562500
vt 0.375000 0.601562
vt 0.398438 0.601562
vt 0.398438 0.656250
vt 0.375000 0.656250
vt 0.156250 0.554688
vt 0.171875 0.554688
vt 0.171875 0.609375
vt 0.156250 0.609375
vt 0.000000 0.554688
vt 0.023438 0.554688
vt 0.187500 0.554688
vt 0.187500 0.609375
vt 0.460938 0.546875
vt 0.437500 0.531250
vt 0.460938 0.531250
vt 0.476562 0.546875
vt 0.343750 0.843750
vt 0.367188 0.843750
vt 0.367188 0.906250
vt 0.390625 0.937500
vt 0.390625 1.000000
vt 0.367188 0.687500
vt 0.046875 0.546875
vt 0.062500 0.546875
vt 0.023438 0.531250
vt 0.000000 0.531250
vt 0.000000 0.515625
vt 0.023438 0.515625
vt 0.492188 0.984375
vt 0.468750 0.984375
vt 0.468750 1.000000
vt 0.492188 1.000000
vt 0.468750 0.968750
vt 0.492188 0.968750
vt 0.421875 0.828125
vt 0.421875 0.843750
vt 0.468750 0.953125
vt 0.492188 0.953125
vt 0.031250 0.531250
vt 0.031250 0.546875
vt 0.000000 0.546875
vt 0.406250 0.906250
vt 0.429688 0.906250
vt 0.429688 0.875000
vt 0.406250 0.875000
vt 0.406250 0.703125
vt 0.429688 0.703125
vt 0.429688 0.734375
vt 0.046875 0.515625
vt 0.062500 0.515625
vt 0.468750 0.875000
vt 0.453125 0.875000
vt 0.468750 0.937500
vt 0.492188 0.937500
vt 0.085938 0.515625
vt 0.062500 0.531250
vt 0.085938 0.531250
vt 0.468750 0.914062
vt 0.492188 0.914062
vt 0.031250 0.507812
vt 0.039062 0.507812
vt 0.039062 0.531250
vt 0.093750 0.507812
vt 0.117188 0.507812
vt 0.117188 0.531250
vt 0.093750 0.531250
vt 0.468750 0.882812
vt 0.476562 0.882812
vt 0.476562 0.906250
vt 0.468750 0.906250
vt 0.148438 0.531250
vt 0.125000 0.531250
vt 0.125000 0.523438
vt 0.148438 0.523438
vt 0.492188 0.867188
vt 0.468750 0.867188
vt 0.492188 0.875000
vt 0.187500 0.695312
vt 0.210938 0.695312
vt 0.312500 0.945312
vt 0.320312 0.945312
vt 0.320312 0.953125
vt 0.312500 0.953125
vt 0.312500 0.992188
vt 0.335938 0.992188
vt 0.335938 1.000000
vt 0.312500 1.000000
vt 0.312500 0.929688
vt 0.320312 0.929688
vt 0.320312 0.937500
vt 0.312500 0.937500
vt 0.335938 0.984375
vt 0.312500 0.984375
vt 0.312500 0.976562
vt 0.335938 0.976562
vt 0.335938 0.960938
vt 0.312500 0.960938
vt 0.312500 0.968750
vt 0.335938 0.968750
s 1
usemtl m_8457f47d-fe0e-7705-51b3-ac563fb3c6ad
f 4/1/1 7/2/1 5/3/1 2/4/1
f 3/5/2 4/6/2 2/7/2 1/8/2
f 8/9/3 3/10/3 1/2/3 6/1/3
f 7/11/4 8/12/4 6/13/4 5/14/4
f 6/15/5 1/16/5 2/17/5 5/18/5
f 7/19/6 4/20/6 3/21/6 8/22/6
f 12/23/7 15/24/7 13/25/7 10/26/7
f 11/27/2 12/28/2 10/29/2 9/30/2
f 16/31/8 11/32/8 9/33/8 14/34/8
f 15/35/4 16/36/4 14/37/4 13/38/4
f 14/39/9 9/40/9 10/41/9 13/42/9
f 15/43/10 12/44/10 11/45/10 16/46/10
f 20/47/11 23/48/11 21/49/11 18/50/11
f 19/51/2 20/52/2 18/48/2 17/47/2
f 24/53/12 19/54/12 17/55/12 22/56/12
f 23/57/4 24/58/4 22/59/4 21/60/4
f 22/61/13 17/62/13 18/63/13 21/64/13
f 23/65/14 20/66/14 19/67/14 24/68/14
f 28/69/15 31/70/15 29/54/15 26/53/15
f 27/71/2 28/72/2 26/73/2 25/74/2
f 32/75/16 27/76/16 25/77/16 30/78/16
f 31/79/4 32/80/4 30/70/4 29/69/4
f 30/81/17 25/82/17 26/83/17 29/84/17
f 31/85/18 28/86/18 27/87/18 32/88/18
f 36/89/19 39/90/19 37/91/19 34/92/19
f 35/93/2 36/94/2 34/95/2 33/96/2
f 40/97/20 35/98/20 33/99/20 38/100/20
f 39/101/4 40/102/4 38/103/4 37/104/4
f 38/105/21 33/106/21 34/107/21 37/108/21
f 39/109/22 36/110/22 35/111/22 40/112/22
f 44/113/23 47/114/23 45/115/23 42/116/23
f 43/117/2 44/118/2 42/119/2 41/120/2
f 48/121/24 43/122/24 41/123/24 46/124/24
f 47/125/4 48/126/4 46/127/4 45/7/4
f 46/128/25 41/129/25 42/130/25 45/131/25
f 47/132/26 44/133/26 43/134/26 48/135/26
f 52/40/27 55/39/27 53/136/27 50/137/27
f 51/100/2 52/138/2 50/28/2 49/27/2
f 56/139/28 51/140/28 49/141/28 54/142/28
f 55/143/4 56/144/4 54/36/4 53/35/4
f 54/145/29 49/146/29 50/147/29 53/148/29
f 55/149/30 52/150/30 51/151/30 56/152/30
f 60/153/31 63/154/31 61/18/31 58/17/31
f 59/155/2 60/156/2 58/157/2 57/158/2
f 64/159/32 59/160/32 57/161/32 62/162/32
f 63/156/4 64/163/4 62/164/4 61/157/4
f 62/165/33 57/166/33 58/167/33 61/168/33
f 63/169/34 60/170/34 59/164/34 64/171/34
f 68/172/27 71/173/27 69/174/27 66/175/27
f 67/176/2 68/177/2 66/178/2 65/179/2
f 72/180/28 67/181/28 65/182/28 70/183/28
f 71/184/4 72/185/4 70/186/4 69/187/4
f 70/188/29 65/189/29 66/190/29 69/191/29
f 71/192/30 68/193/30 67/194/30 72/195/30
f 76/26/11 79/25/11 77/196/11 74/197/11
f 75/34/2 76/33/2 74/198/2 73/199/2
f 80/137/12 75/136/12 73/200/12 78/201/12
f 79/202/4 80/203/4 78/204/4 77/205/4
f 78/206/13 73/207/13 74/208/13 77/209/13
f 79/210/14 76/211/14 75/212/14 80/213/14
f 84/214/15 87/215/15 85/203/15 82/202/15
f 83/216/2 84/217/2 82/215/2 81/214/2
f 88/218/16 83/219/16 81/220/16 86/221/16
f 87/222/4 88/223/4 86/219/4 85/218/4
f 86/224/17 81/225/17 82/226/17 85/227/17
f 87/228/18 84/229/18 83/230/18 88/231/18
f 92/232/19 95/233/19 93/234/19 90/235/19
f 91/236/2 92/237/2 90/144/2 89/238/2
f 96/239/20 91/240/20 89/241/20 94/242/20
f 95/243/4 96/244/4 94/245/4 93/246/4
f 94/247/21 89/248/21 90/249/21 93/250/21
f 95/251/22 92/252/22 91/253/22 96/254/22
f 100/255/23 103/256/23 101/257/23 98/258/23
f 99/259/2 100/260/2 98/261/2 97/262/2
f 104/263/24 99/264/24 97/265/24 102/266/24
f 103/267/4 104/268/4 102/269/4 101/270/4
f 102/271/25 97/272/25 98/273/25 101/274/25
f 103/275/26 100/276/26 99/277/26 104/278/26
f 108/279/7 111/280/7 109/19/7 106/20/7
f 107/281/2 108/282/2 106/283/2 105/284/2
f 112/285/8 107/286/8 105/280/8 110/279/8
f 111/4/4 112/112/4 110/282/4 109/281/4
f 110/287/9 105/13/9 106/288/9 109/289/9
f 111/290/10 108/291/10 107/292/10 112/293/10
f 116/294/35 119/295/35 117/296/35 114/297/35
f 115/298/2 116/299/2 114/151/2 113/300/2
f 120/301/36 115/302/36 113/295/36 118/294/36
f 119/253/4 120/303/4 118/304/4 117/305/4
f 118/286/37 113/285/37 114/306/37 117/307/37
f 119/308/38 116/309/38 115/306/38 120/307/38
f 124/310/39 127/311/39 125/312/39 122/313/39
f 123/314/2 124/315/2 122/316/2 121/317/2
f 128/318/40 123/319/40 121/311/40 126/310/40
f 127/320/4 128/321/4 126/319/4 125/318/4
f 126/322/41 121/9/41 122/323/41 125/324/41
f 127/325/42 124/326/42 123/327/42 128/328/42
f 132/329/43 135/330/43 133/72/43 130/71/43
f 131/331/2 132/332/2 130/333/2 129/334/2
f 136/335/44 131/336/44 129/76/44 134/75/44
f 135/337/4 136/338/4 134/339/4 133/31/4
f 134/308/45 129/309/45 130/340/45 133/341/45
f 135/342/46 132/343/46 131/340/46 136/341/46
f 140/344/11 143/345/11 141/223/11 138/222/11
f 139/346/2 140/347/2 138/348/2 137/139/2
f 144/262/12 139/261/12 137/80/12 142/79/12
f 143/305/4 144/304/4 142/347/4 141/346/4
f 142/349/13 137/312/13 138/350/13 141/351/13
f 143/352/14 140/311/14 139/350/14 144/351/14
f 148/266/15 151/265/15 149/217/15 146/216/15
f 147/353/2 148/5/2 146/116/2 145/354/2
f 152/270/16 147/269/16 145/345/16 150/344/16
f 151/347/4 152/11/4 150/124/4 149/348/4
f 150/352/17 145/311/17 146/355/17 149/356/17
f 151/357/18 148/315/18 147/358/18 152/359/18
f 156/360/19 159/361/19 157/362/19 154/363/19
f 155/364/2 156/365/2 154/142/2 153/366/2
f 160/367/20 155/368/20 153/369/20 158/370/20
f 159/371/4 160/372/4 158/373/4 157/374/4
f 158/356/21 153/355/21 154/319/21 157/375/21
f 159/376/22 156/377/22 155/319/22 160/375/22
f 164/378/23 167/379/23 165/380/23 162/381/23
f 163/382/2 164/383/2 162/384/2 161/385/2
f 168/386/24 163/387/24 161/24/24 166/23/24
f 167/383/4 168/388/4 166/389/4 165/384/4
f 166/390/25 161/320/25 162/391/25 165/392/25
f 167/393/26 164/321/26 163/377/26 168/376/26
f 172/394/27 175/395/27 173/396/27 170/353/27
f 171/397/2 172/301/2 170/297/2 169/398/2
f 176/292/28 171/293/28 169/399/28 174/347/28
f 175/400/4 176/401/4 174/40/4 173/339/4
f 174/402/29 169/403/29 170/404/29 173/405/29
f 175/406/30 172/407/30 171/408/30 176/409/30
f 180/410/27 183/411/27 181/406/27 178/407/27
f 179/412/2 180/20/2 178/21/2 177/413/2
f 184/414/28 179/415/28 177/411/28 182/410/28
f 183/403/4 184/416/4 182/417/4 181/418/4
f 182/302/29 177/301/29 178/419/29 181/420/29
f 183/421/30 180/422/30 179/419/30 184/420/30
f 188/423/1 191/424/1 189/425/1 186/322/1
f 187/426/2 188/427/2 186/401/2 185/400/2
f 192/62/3 187/61/3 185/424/3 190/423/3
f 191/21/4 192/167/4 190/428/4 189/429/4
f 190/415/5 185/414/5 186/430/5 189/431/5
f 191/432/47 188/427/47 187/433/47 192/434/47
f 196/435/31 199/436/31 197/431/31 194/430/31
f 195/437/2 196/438/2 194/439/2 193/416/2
f 200/440/32 195/441/32 193/442/32 198/443/32
f 199/444/4 200/445/4 198/446/4 197/447/4
f 198/448/33 193/449/33 194/450/33 197/451/33
f 199/452/34 196/453/34 195/428/34 200/454/34
f 204/455/43 207/456/43 205/52/43 202/51/43
f 203/457/2 204/458/2 202/459/2 201/460/2
f 208/461/44 203/462/44 201/463/44 206/464/44
f 207/465/4 208/466/4 206/467/4 205/468/4
f 206/469/45 201/470/45 202/471/45 205/472/45
f 207/473/46 204/474/46 203/475/46 208/476/46
